<?xml version="1.0" standalone="no"?>
<!DOCTYPE svg PUBLIC "-//W3C//DTD SVG 20010904//EN"
 "http://www.w3.org/TR/2001/REC-SVG-20010904/DTD/svg10.dtd">
<svg version="1.0" xmlns="http://www.w3.org/2000/svg"
 width="1004.000000pt" height="591.000000pt" viewBox="0 0 1004.000000 591.000000"
 preserveAspectRatio="xMidYMid meet">

<g transform="translate(0.000000,591.000000) scale(0.100000,-0.100000)"
fill="#000000" stroke="none">
<path d="M4873 4003 c43 -2 110 -2 150 0 40 1 5 3 -78 3 -82 0 -115 -2 -72 -3z"/>
<path d="M5157 4003 c18 -2 50 -2 70 0 21 2 7 4 -32 4 -38 0 -55 -2 -38 -4z"/>
<path d="M4463 3993 c15 -2 39 -2 55 0 15 2 2 4 -28 4 -30 0 -43 -2 -27 -4z"/>
<path d="M4598 3993 c17 -2 47 -2 65 0 17 2 3 4 -33 4 -36 0 -50 -2 -32 -4z"/>
<path d="M5425 3991 c50 -3 -90 -5 -310 -5 -220 1 -467 -2 -550 -7 -82 -5
-220 -11 -305 -13 -207 -6 -188 -4 -170 -17 12 -8 9 -10 -12 -6 -15 2 -25 1
-23 -3 2 -4 -8 -12 -23 -19 -25 -11 -26 -10 -8 4 11 8 14 15 8 15 -17 0 -70
-86 -83 -133 -14 -54 -5 -57 10 -5 33 110 88 127 468 149 209 11 871 14 1083
4 173 -8 452 -34 490 -45 80 -23 108 -70 139 -234 12 -59 21 -111 21 -117 0
-10 -43 -11 -92 -2 l-28 5 7 116 c3 64 10 119 15 120 16 7 8 31 -18 51 -41 32
-93 43 -279 60 -261 23 -723 35 -742 19 -9 -7 -13 -7 -13 1 0 11 -183 9 -530
-3 -226 -9 -394 -32 -447 -63 -50 -29 -58 -39 -45 -56 6 -7 12 -63 14 -125 3
-98 1 -112 -13 -112 -9 0 -31 -3 -48 -6 -26 -5 -31 -3 -31 12 0 16 -1 16 -12
1 -11 -14 -56 -18 -323 -28 -284 -11 -313 -11 -342 4 -35 18 -83 23 -83 8 0
-6 5 -13 10 -16 21 -13 8 -24 -37 -30 -75 -10 -136 -33 -173 -64 -30 -24 -33
-31 -21 -44 7 -9 33 -19 58 -23 48 -7 64 -26 45 -53 -36 -50 -44 -74 -33 -97
6 -13 7 -24 2 -24 -5 0 -12 6 -15 13 -4 6 -4 -10 -1 -38 5 -51 25 -88 25 -47
0 14 6 22 16 22 10 0 14 -6 11 -14 -4 -10 -1 -13 8 -10 11 5 12 10 2 24 -6 11
-9 22 -6 25 12 11 173 7 177 -5 2 -6 15 -15 28 -20 46 -18 23 -85 -36 -110
-33 -14 -35 -33 -4 -37 18 -3 18 -2 -1 6 -13 6 107 10 327 10 191 1 349 -3
352 -7 3 -5 27 -5 53 -1 63 10 197 10 250 0 24 -5 40 -4 37 0 -3 5 0 9 5 9 6
0 11 -4 11 -10 0 -6 14 -7 38 -3 20 4 105 7 187 7 92 -1 140 2 125 7 -17 6 -8
7 30 4 46 -3 51 -2 28 6 -31 12 -30 9 -30 152 1 74 0 77 -23 77 -23 0 -23 -2
-23 -97 0 -123 -1 -128 -8 -120 -4 4 -7 45 -6 92 0 82 -1 85 -24 85 -22 0 -23
-3 -21 -61 2 -33 -1 -65 -5 -72 -8 -13 -10 12 -10 136 0 43 3 81 6 84 3 4 6
-3 6 -15 0 -11 6 -23 13 -25 10 -4 10 -6 0 -6 -25 -2 -13 -31 12 -31 26 0 35
24 13 33 -7 3 6 6 30 6 36 1 42 4 42 23 0 12 3 19 6 15 3 -3 6 -22 6 -41 0
-31 3 -36 24 -36 24 0 29 18 9 32 -6 5 -5 8 3 8 7 0 10 5 7 10 -3 6 -1 10 4
10 6 0 11 -4 11 -10 0 -5 14 -10 30 -10 23 0 30 -4 30 -20 0 -15 7 -20 27 -20
26 0 26 0 7 23 -19 22 -19 22 1 5 16 -14 20 -27 18 -64 -4 -60 -13 -71 -13
-16 0 35 -3 42 -20 42 -18 0 -20 -7 -20 -66 0 -36 -4 -63 -8 -60 -5 3 -7 32
-6 66 3 58 2 60 -21 60 -24 0 -24 -1 -22 -80 1 -44 -1 -80 -5 -80 -9 0 -11 21
-10 103 1 54 -1 57 -23 57 -24 0 -25 -1 -23 -86 2 -58 6 -88 15 -91 18 -7 77
15 110 40 23 17 25 18 13 3 -8 -11 -33 -27 -55 -37 -47 -22 -33 -25 17 -5 33
14 120 98 130 126 3 8 8 12 12 9 12 -11 -70 -115 -117 -146 -26 -17 -68 -37
-94 -43 -35 -9 -262 -14 -822 -17 -673 -4 -777 -7 -798 -20 -25 -17 -31 -43
-10 -43 8 0 27 -7 44 -15 25 -13 138 -16 744 -20 393 -3 792 -7 887 -10 134
-4 172 -3 166 6 -5 9 -2 10 12 4 29 -13 211 -18 244 -7 16 6 30 7 32 2 2 -5
392 -10 905 -11 824 -1 905 0 928 15 20 13 30 14 48 5 40 -21 87 -60 87 -73 0
-9 -248 -11 -1217 -9 -670 2 -1620 3 -2110 3 -686 0 -893 3 -893 12 0 7 10 24
23 38 12 14 7 11 -11 -8 -18 -18 -32 -38 -29 -45 3 -9 143 -12 578 -14 316 0
1240 -4 2054 -8 814 -4 1510 -7 1548 -7 37 1 67 -3 67 -8 0 -15 -57 -50 -96
-58 -34 -7 -39 -11 -38 -35 1 -15 3 -66 4 -114 l4 -88 5 109 c6 107 7 110 32
116 48 13 109 61 109 86 0 30 -51 88 -92 105 -38 15 -48 26 -48 56 l0 21 -362
1 c-569 2 -1104 11 -1206 22 -99 10 -174 40 -169 69 1 8 -4 14 -10 13 -7 -2
-13 2 -13 7 0 6 -11 28 -25 50 -32 51 -33 66 0 18 13 -20 40 -46 60 -58 19
-12 35 -24 35 -26 0 -3 -5 -2 -12 2 -7 4 -8 3 -4 -5 5 -7 16 -9 28 -5 13 4 18
2 14 -4 -10 -17 38 -29 148 -36 49 -3 60 -2 36 3 -26 6 -13 8 55 8 70 0 80 -2
45 -7 -25 -4 124 -8 330 -9 504 -4 620 -4 650 4 18 5 21 4 11 -3 -9 -7 37 -10
143 -10 86 0 170 -3 186 -7 25 -6 29 -4 24 10 -5 11 5 29 28 53 78 81 84 154
21 245 -26 38 -27 40 -8 53 10 8 29 14 41 14 13 0 29 7 38 15 8 8 19 15 25 15
6 0 8 6 5 14 -8 20 -153 85 -208 92 -41 6 -46 9 -32 19 18 14 22 45 5 45 -6 0
-30 -12 -54 -26 -37 -21 -53 -25 -97 -20 -29 2 -169 10 -311 17 -247 12 -258
13 -262 33 -3 12 -9 50 -15 86 -16 95 -51 221 -60 215 -4 -3 -7 1 -6 8 0 6 -2
12 -6 12 -4 0 -15 10 -23 23 -15 20 -43 33 -31 13 4 -5 -3 -7 -15 -4 -14 4
-17 8 -9 13 30 19 -100 35 -275 34 -108 0 -148 2 -100 5 l80 6 -115 7 c-63 5
-149 7 -190 6 l-75 -2 90 -5z m418 -28 c-18 -2 -48 -2 -65 0 -18 2 -4 4 32 4
36 0 50 -2 33 -4z m-1690 -10 c-7 -2 -21 -2 -30 0 -10 3 -4 5 12 5 17 0 24 -2
18 -5z m1785 0 c-10 -2 -26 -2 -35 0 -10 3 -2 5 17 5 19 0 27 -2 18 -5z m49
-9 c-3 -3 -12 -4 -19 -1 -8 3 -5 6 6 6 11 1 17 -2 13 -5z m-962 -76 l8 -23 4
22 c3 17 10 21 36 19 18 -2 47 -4 65 -5 24 -1 32 -6 32 -20 0 -17 -10 -18
-142 -17 -140 1 -143 1 -146 24 -3 21 0 22 66 22 63 0 70 -2 77 -22z m-300
-124 c347 0 754 -5 905 -8 237 -7 281 -6 320 8 25 9 48 16 53 16 8 0 1 -135
-9 -176 -9 -34 -41 -31 -120 13 -61 33 -73 36 -153 37 -79 1 -92 -2 -150 -32
l-64 -33 -171 4 c-94 3 -187 8 -206 12 -25 4 -46 1 -72 -13 -37 -20 -38 -20
-78 0 -36 18 -49 19 -101 11 -33 -5 -233 -11 -443 -12 -364 -2 -384 -1 -388
16 -3 10 -6 55 -7 101 l-2 82 28 -12 c20 -9 198 -12 658 -14z m-545 10 c0 -2
-11 -4 -25 -4 -14 0 -25 4 -25 9 0 4 11 6 25 3 14 -2 25 -6 25 -8z m1639 -160
c28 -9 53 -20 56 -23 3 -7 -258 -4 -295 3 -27 5 82 33 136 35 29 1 75 -6 103
-15z m-843 -53 c-17 -7 -18 -8 -3 -14 9 -3 19 -1 23 5 4 7 9 6 15 -3 6 -11 14
-11 39 -2 16 6 32 8 34 4 3 -3 -4 -31 -14 -61 -11 -30 -19 -63 -20 -72 0 -10
-7 -18 -15 -18 -8 0 -15 -7 -15 -15 0 -8 -5 -15 -11 -15 -7 0 -8 7 -4 18 4 9
10 26 12 37 l5 20 -17 -20 -17 -20 7 20 c16 48 16 50 0 30 l-17 -20 5 20 c2
11 8 29 13 40 7 18 6 19 -11 5 -17 -14 -18 -13 -13 8 4 12 2 20 -3 16 -5 -3
-9 -1 -9 5 0 5 -3 16 -6 25 -5 12 0 16 17 15 22 0 22 -1 5 -8z m-1133 -96 c-4
-12 5 -15 48 -15 39 0 50 3 39 10 -12 8 -11 10 8 10 28 0 38 -3 35 -12 -2 -5
39 -7 90 -6 l92 2 -85 6 c-96 7 -95 11 2 14 37 1 71 5 74 9 10 10 36 9 30 -1
-3 -5 52 -7 122 -5 151 4 121 4 262 0 63 -2 123 1 132 5 9 4 19 4 22 0 6 -10
36 -9 54 2 6 4 12 3 12 -1 0 -5 9 -9 19 -9 11 0 17 4 14 9 -2 4 8 5 24 1 15
-4 38 -8 51 -8 12 0 22 -4 22 -8 0 -4 8 -8 18 -8 10 0 22 -12 29 -30 12 -32 6
-44 -17 -30 -8 5 -22 2 -37 -7 -15 -10 -23 -11 -23 -4 0 8 -5 9 -19 1 -14 -7
-22 -7 -26 0 -4 6 -10 8 -15 5 -4 -3 -27 2 -50 10 -23 8 -52 15 -64 14 -11 0
1 -6 27 -13 69 -19 80 -35 20 -29 -37 3 -45 2 -33 -7 13 -9 12 -10 -5 -6 -77
20 -146 27 -397 41 -156 8 -528 19 -828 26 -300 6 -547 13 -549 15 -17 16 62
19 450 16 402 -3 439 -2 439 13 0 9 4 14 10 10 5 -3 7 -12 3 -20z m1375 -7 c8
-8 12 -8 12 -1 0 13 83 5 89 -9 1 -5 12 -2 22 8 12 11 19 13 19 5 0 -7 5 -9
11 -5 15 9 79 13 79 4 0 -3 22 -6 49 -4 27 1 55 -2 62 -7 10 -6 8 -8 -6 -7
-47 2 -211 -24 -272 -44 -47 -16 -70 -19 -82 -11 -11 7 -21 7 -33 0 -21 -14
-68 9 -68 32 0 19 36 44 50 36 6 -4 10 -1 10 4 0 15 43 14 58 -1z m385 -1 c8
13 50 9 54 -4 3 -7 -12 -11 -37 -10 -29 1 -40 5 -40 16 0 13 2 13 9 2 5 -7 11
-9 14 -4z m1506 -13 c14 -13 -25 -17 -151 -15 -240 3 -1048 -19 -1308 -36
-277 -17 -382 -21 -372 -12 37 33 202 45 802 59 731 17 1014 18 1029 4z
m-3956 -41 c-7 -2 -19 -2 -25 0 -7 3 -2 5 12 5 14 0 19 -2 13 -5z m74 1 c-3
-3 -12 -4 -19 -1 -8 3 -5 6 6 6 11 1 17 -2 13 -5z m126 -1 c-7 -2 -19 -2 -25
0 -7 3 -2 5 12 5 14 0 19 -2 13 -5z m320 -10 c-7 -2 -21 -2 -30 0 -10 3 -4 5
12 5 17 0 24 -2 18 -5z m-371 -33 c-2 -16 -5 -30 -7 -30 -2 0 -5 14 -7 30 -3
19 0 30 7 30 7 0 10 -11 7 -30z m71 23 c-7 -2 -19 -2 -25 0 -7 3 -2 5 12 5 14
0 19 -2 13 -5z m614 1 c-3 -3 -12 -4 -19 -1 -8 3 -5 6 6 6 11 1 17 -2 13 -5z
m-774 -18 c35 -14 83 -70 89 -103 4 -27 -14 -31 -28 -4 -6 11 -14 18 -19 13
-5 -4 -5 -1 -1 6 9 16 -12 44 -27 35 -5 -3 -7 -1 -3 5 10 16 -10 27 -71 38
-21 4 -33 2 -33 -5 0 -6 -6 -8 -13 -5 -18 7 -66 -32 -80 -65 l-11 -26 -4 25
c-3 18 6 33 37 62 34 33 47 38 86 38 25 0 60 -6 78 -14z m328 -17 c43 -31 78
-109 49 -109 -5 0 -10 5 -10 10 0 6 -12 23 -27 37 -16 15 -21 23 -13 18 10 -6
9 -1 -4 13 -36 41 -113 51 -154 21 -10 -7 -27 -24 -39 -38 -21 -24 -23 -24
-23 -6 0 27 12 43 46 66 38 25 132 19 175 -12z m33 10 c-3 -5 -10 -7 -15 -3
-5 3 -7 10 -3 15 3 5 10 7 15 3 5 -3 7 -10 3 -15z m62 -27 c4 -27 2 -42 -5
-42 -6 0 -11 20 -11 47 0 55 8 53 16 -5z m59 -26 c0 -40 3 -66 10 -66 5 0 3
-5 -5 -10 -12 -8 -9 -10 13 -10 27 0 33 17 12 32 -6 5 -5 8 3 8 8 0 12 19 12
62 0 34 3 59 6 55 4 -3 7 -40 7 -82 0 -74 0 -75 26 -74 23 0 24 1 6 9 -14 6
-15 9 -5 9 12 1 16 15 18 63 1 34 4 64 7 66 5 5 6 -11 8 -110 1 -38 1 -38 41
-38 23 0 36 -4 29 -8 -14 -9 -13 -104 2 -114 6 -5 5 -8 -3 -8 -7 0 -10 -4 -7
-10 3 -5 1 -10 -4 -10 -12 0 -13 3 -12 83 0 53 -2 57 -24 57 -22 0 -24 -4 -24
-57 1 -80 0 -87 -8 -80 -3 4 -5 36 -4 72 2 63 1 65 -23 65 -24 0 -24 -2 -23
-69 1 -41 -2 -68 -8 -67 -6 0 -9 30 -8 69 l1 67 -41 0 c-31 0 -38 3 -27 10 13
8 12 10 -5 11 -19 1 -19 2 -1 6 15 4 16 7 5 14 -10 6 -10 9 -1 9 8 0 12 19 12
61 0 33 4 58 8 55 5 -3 8 -34 7 -70z m2989 48 c13 -5 17 -4 12 4 -3 6 -1 14 5
18 8 5 10 1 7 -14 -4 -13 1 -27 13 -38 10 -9 21 -25 25 -36 7 -22 19 -15 38
24 7 12 20 22 29 22 9 -1 15 3 14 9 -1 5 18 15 43 22 70 18 150 -16 150 -64 0
-10 -10 -5 -31 15 -26 25 -38 29 -85 28 -48 0 -58 -4 -89 -34 -19 -19 -35 -39
-35 -46 0 -15 -29 -39 -37 -30 -3 3 -7 14 -8 24 -1 9 -7 28 -12 41 -8 20 -11
22 -16 7 -5 -14 -10 -14 -26 -4 -11 7 -18 15 -15 19 9 15 -38 31 -78 26 -40
-5 -108 -57 -108 -83 0 -6 -8 -18 -17 -25 -15 -12 -16 -12 -10 4 4 11 10 29
13 42 7 30 66 76 108 85 30 6 71 0 110 -16z m-2817 -21 c-3 -10 -5 -4 -5 12 0
17 2 24 5 18 2 -7 2 -21 0 -30z m65 -42 l1 -71 36 -2 36 -1 -36 -4 -36 -4 0
-55 c0 -43 3 -54 16 -55 13 0 13 -2 -2 -8 -10 -4 -18 -10 -18 -14 1 -4 -2 -7
-6 -7 -4 0 -6 39 -6 88 0 54 -4 90 -11 94 -8 6 -7 8 2 8 8 0 12 18 12 57 0 31
2 54 5 51 3 -3 6 -38 7 -77z m55 2 c-2 -16 -4 -3 -4 27 0 30 2 43 4 28 2 -16
2 -40 0 -55z m62 25 c-2 -52 -2 -53 -8 -13 -4 22 -5 46 -3 53 8 25 12 11 11
-40z m2714 33 c2 -10 1 -25 -4 -32 -6 -10 -9 -4 -9 19 0 36 5 42 13 13z
m-2659 -43 c-2 -26 1 -45 9 -50 9 -6 9 -8 -1 -8 -7 0 -10 -4 -7 -10 3 -5 2
-10 -4 -10 -5 0 -11 4 -13 10 -6 19 4 120 12 115 4 -3 6 -24 4 -47z m58 -2 l1
-46 41 -2 41 -1 -42 -4 c-29 -3 -43 -9 -43 -19 0 -10 12 -14 43 -14 23 0 37
-4 31 -8 -6 -4 -11 -24 -12 -44 -1 -57 -1 -62 -9 -54 -4 3 -6 27 -4 51 2 42 0
45 -23 45 -24 0 -25 -2 -23 -60 1 -33 -1 -68 -5 -77 -3 -10 -7 17 -7 60 -1 66
-4 77 -18 78 -17 1 -17 2 0 6 19 5 24 33 5 33 -10 0 -10 2 -1 8 6 4 11 23 11
42 0 50 1 64 7 58 3 -3 6 -26 7 -52z m60 -24 c-9 -26 -18 7 -13 45 l5 38 6
-35 c3 -19 4 -41 2 -48z m543 68 c3 -6 -1 -7 -9 -4 -18 7 -21 14 -7 14 6 0 13
-4 16 -10z m1548 -28 c-3 -8 0 -18 8 -23 8 -5 9 -9 3 -9 -7 0 -11 -39 -12
-111 -1 -62 -4 -114 -7 -117 -3 -3 -5 47 -6 111 -2 204 -2 197 10 178 5 -8 7
-21 4 -29z m57 23 c0 -8 -4 -15 -10 -15 -5 0 -7 7 -4 15 4 8 8 15 10 15 2 0 4
-7 4 -15z m-2088 -41 c1 -21 6 -42 12 -46 8 -5 7 -8 -1 -8 -7 0 -13 -7 -13
-15 0 -8 6 -15 13 -15 9 0 9 -2 0 -8 -7 -4 -11 -30 -10 -65 2 -51 -9 -117 -13
-77 -2 16 -2 207 -1 254 1 42 11 26 13 -20z m58 4 c0 -23 -3 -38 -7 -34 -11
10 -13 76 -3 76 6 0 10 -19 10 -42z m55 -3 c-2 -42 0 -45 22 -45 17 0 24 5 22
18 -3 37 1 73 9 68 5 -3 7 -23 5 -45 -2 -28 1 -41 10 -41 9 0 9 -2 -1 -9 -8
-4 -14 -12 -14 -16 0 -4 6 -12 14 -16 10 -7 10 -9 1 -9 -7 0 -13 -7 -13 -15 0
-8 6 -15 13 -16 9 0 9 -2 -1 -6 -6 -2 -10 -9 -6 -14 3 -5 0 -9 -5 -9 -12 0
-14 8 -13 63 1 33 -1 37 -24 37 -14 0 -22 -4 -19 -10 3 -5 1 -10 -4 -10 -12 0
-13 5 -13 45 0 57 2 75 11 75 4 0 7 -20 6 -45z m1567 -23 c-7 -21 -18 3 -16
35 1 15 3 30 4 33 5 11 16 -56 12 -68z m-1392 43 c0 -8 -2 -15 -4 -15 -2 0 -6
7 -10 15 -3 8 -1 15 4 15 6 0 10 -7 10 -15z m977 -7 c-3 -8 -6 -5 -6 6 -1 11
2 17 5 13 3 -3 4 -12 1 -19z m89 -18 c25 0 34 24 12 33 -7 3 10 5 37 5 34 -1
40 -2 18 -5 -20 -3 -33 -10 -33 -19 0 -11 16 -14 68 -16 l67 -2 -65 -3 c-35
-2 -68 -9 -72 -16 -6 -9 -8 -9 -8 1 0 6 -11 12 -25 12 l-25 0 3 -105 c2 -58 0
-110 -5 -117 -4 -7 -7 52 -6 132 0 80 3 135 5 123 3 -16 11 -23 29 -23z m207
-19 c-8 -55 -13 -51 -13 10 0 34 3 49 9 40 5 -7 6 -30 4 -50z m54 7 c-2 -13
-4 -5 -4 17 -1 22 1 32 4 23 2 -10 2 -28 0 -40z m126 36 c-3 -9 -1 -19 4 -23
7 -4 7 -10 -1 -17 -9 -8 -15 -7 -24 3 -7 7 -8 13 -3 13 5 0 8 9 6 20 -2 12 2
20 10 20 9 0 12 -6 8 -16z m57 1 c0 -8 -5 -15 -11 -15 -5 0 -8 4 -5 9 4 5 0
12 -6 14 -8 3 -6 6 5 6 9 1 17 -6 17 -14z m107 -7 c-3 -8 -6 -5 -6 6 -1 11 2
17 5 13 3 -3 4 -12 1 -19z m65 -3 c3 -14 1 -28 -3 -31 -5 -3 -9 9 -9 25 0 38
6 40 12 6z m-3047 -5 c10 -11 13 -20 7 -20 -7 0 -11 -10 -9 -22 2 -22 -2 -23
-74 -26 -71 -3 -76 -2 -74 17 1 11 5 24 10 28 4 5 5 2 0 -6 -5 -10 -4 -12 4
-7 6 4 9 11 6 16 -14 22 8 37 58 39 43 1 57 -2 72 -19z m310 0 c-1 -8 -10 -14
-21 -12 -18 2 -18 2 -1 -11 37 -30 21 -42 -58 -44 -41 -1 -75 1 -75 5 0 4 11
24 25 45 25 36 28 37 79 35 42 -2 53 -6 51 -18z m1928 -117 c0 -65 -4 -118 -9
-118 -4 0 -8 39 -7 88 0 84 0 87 -23 87 -22 0 -22 -3 -21 -85 1 -47 -1 -85 -5
-85 -9 0 -10 16 -10 108 0 41 -3 62 -11 62 -8 0 -8 3 1 9 8 4 12 15 10 22 -2
8 2 15 7 16 6 1 9 -7 7 -17 -3 -16 3 -20 23 -20 19 0 26 5 24 18 -2 28 1 46 7
39 4 -3 6 -59 7 -124z m1177 118 c0 -5 -12 -12 -27 -14 -25 -4 -24 -4 6 -6 36
-1 71 -25 71 -47 0 -9 -19 -13 -68 -13 -52 0 -69 4 -69 14 0 8 6 16 14 19 7 3
13 10 13 17 0 6 -7 8 -17 5 -15 -6 -15 -4 2 14 18 20 75 28 75 11z m306 2 c16
-6 16 -7 -2 -14 -18 -7 -18 -8 1 -8 12 -1 28 -14 38 -31 l18 -30 -75 0 c-42 0
-76 4 -76 10 0 5 10 19 23 31 l22 22 -27 -7 c-16 -3 -28 -4 -28 -2 0 9 54 35
72 36 9 0 24 -3 34 -7z m-3054 -33 c3 -16 1 -30 -4 -30 -4 0 -8 14 -8 30 0 17
2 30 4 30 2 0 6 -13 8 -30z m1688 16 c0 -3 -4 -8 -10 -11 -5 -3 -10 -1 -10 4
0 6 5 11 10 11 6 0 10 -2 10 -4z m517 -2 c-3 -3 -12 -4 -19 -1 -8 3 -5 6 6 6
11 1 17 -2 13 -5z m-806 -27 c-6 -6 -18 -12 -27 -13 -14 -2 -14 0 1 17 10 10
22 16 27 13 6 -4 6 -10 -1 -17z m-1635 4 c-4 -5 0 -12 6 -14 8 -3 6 -6 -4 -6
-10 -1 -18 6 -18 14 0 8 5 15 11 15 5 0 8 -4 5 -9z m2084 -1 c-14 -4 -19 -8
-12 -9 6 -1 12 -13 13 -28 0 -16 3 -22 6 -15 2 6 14 12 26 11 22 0 22 0 0 -9
-13 -5 -23 -15 -23 -22 0 -21 -18 5 -22 32 -2 14 -10 25 -18 25 -12 0 -16 -20
-21 -100 -6 -113 -10 -109 -12 15 -2 82 -1 85 23 97 14 6 34 11 45 11 16 0 15
-2 -5 -8z m70 -6 c0 -8 -4 -13 -9 -9 -5 3 -12 1 -16 -5 -8 -13 -35 -13 -35 0
0 6 9 10 20 10 11 0 20 5 20 10 0 6 5 10 10 10 6 0 10 -7 10 -16z m350 -9 c0
-14 -4 -25 -10 -25 -8 0 -8 23 -1 48 4 12 11 -3 11 -23z m227 3 c-3 -8 -6 -5
-6 6 -1 11 2 17 5 13 3 -3 4 -12 1 -19z m693 -14 c0 -14 -4 -22 -10 -19 -5 3
-10 17 -10 31 0 14 4 22 10 19 6 -3 10 -17 10 -31z m-1560 16 c0 -5 -5 -10
-11 -10 -5 0 -7 5 -4 10 3 6 8 10 11 10 2 0 4 -4 4 -10z m-1497 -7 c-7 -2 -21
-2 -30 0 -10 3 -4 5 12 5 17 0 24 -2 18 -5z m50 -9 c-3 -9 -9 -12 -12 -7 -3 4
-10 11 -15 16 -5 4 0 7 12 7 15 0 20 -4 15 -16z m294 10 c-3 -3 -12 -4 -19 -1
-8 3 -5 6 6 6 11 1 17 -2 13 -5z m977 -64 c0 -39 -5 -70 -9 -70 -5 0 -9 11 -8
25 1 14 1 45 2 70 1 25 4 45 9 45 4 0 7 -32 6 -70z m640 55 c-4 -8 -13 -15
-20 -15 -12 0 -12 3 -2 15 17 19 29 19 22 0z m61 6 c-3 -5 3 -12 12 -14 13 -3
12 -5 -5 -6 -13 0 -20 -5 -17 -11 3 -5 -1 -10 -9 -10 -18 0 -21 16 -6 25 6 4
8 11 5 16 -4 5 1 9 10 9 9 0 14 -4 10 -9z m49 -6 c3 -8 1 -15 -4 -15 -6 0 -10
7 -10 15 0 8 2 15 4 15 2 0 6 -7 10 -15z m173 -17 c-3 -7 -5 -2 -5 12 0 14 2
19 5 13 2 -7 2 -19 0 -25z m-2980 -30 c-3 -8 -6 -5 -6 6 -1 11 2 17 5 13 3 -3
4 -12 1 -19z m255 -2 c21 -12 38 -25 38 -30 0 -5 -7 -3 -16 4 -8 8 -14 9 -13
4 4 -21 -3 -31 -32 -48 -19 -11 -34 -15 -38 -9 -3 6 -18 3 -36 -8 l-30 -19 45
0 c54 0 113 31 104 55 -4 10 -2 15 7 13 9 -2 14 5 13 19 0 18 2 20 13 12 19
-16 16 -42 -8 -73 -30 -39 -71 -56 -131 -56 -45 0 -59 5 -91 31 -29 24 -37 38
-37 62 1 29 2 30 14 15 7 -10 17 -14 21 -10 5 4 5 -1 2 -10 -4 -11 1 -23 15
-32 24 -17 49 -9 26 8 -8 6 -22 26 -30 44 -16 32 -16 32 10 38 15 3 32 7 37 9
26 9 84 -1 117 -19z m125 18 c-3 -3 -12 -4 -19 -1 -8 3 -5 6 6 6 11 1 17 -2
13 -5z m407 -9 c-4 -8 -14 -15 -23 -14 -12 0 -12 2 -2 6 11 5 11 7 0 14 -10 6
-8 9 8 9 16 0 21 -4 17 -15z m52 -20 c0 -19 -3 -35 -7 -35 -8 0 -17 42 -11 58
8 24 18 11 18 -23z m246 26 c-8 -5 -13 -23 -12 -42 1 -19 1 -52 0 -74 -2 -61
-15 -16 -14 52 0 32 -5 61 -10 65 -6 4 3 8 19 8 20 0 26 -3 17 -9z m44 -26 c0
-19 -3 -35 -7 -35 -4 0 -9 16 -11 35 -2 21 0 35 7 35 6 0 11 -16 11 -35z m874
19 c0 -8 -5 -12 -10 -9 -6 4 -8 11 -5 16 9 14 15 11 15 -7z m230 1 c0 -8 -2
-15 -4 -15 -2 0 -6 7 -10 15 -3 8 -1 15 4 15 6 0 10 -7 10 -15z m60 5 c0 -5
-4 -10 -10 -10 -5 0 -10 5 -10 10 0 6 5 10 10 10 6 0 10 -4 10 -10z m400 -63
c3 -38 2 -74 -2 -80 -9 -14 -10 -5 -8 80 1 57 0 62 -22 66 -21 5 -21 5 2 4 24
-2 25 -6 30 -70z m412 -15 c2 -28 0 -52 -4 -52 -5 0 -7 33 -7 73 2 76 6 68 11
-21z m-1458 56 c-3 -13 -13 -30 -20 -39 -8 -8 -14 -20 -14 -26 0 -6 -11 -13
-25 -16 -14 -2 -24 -2 -23 2 36 73 99 134 82 79z m290 -41 c34 -55 35 -58 14
-52 -27 8 -88 71 -88 90 0 8 8 15 18 17 21 5 13 13 56 -55z m633 26 c-3 -10
-5 -4 -5 12 0 17 2 24 5 18 2 -7 2 -21 0 -30z m-2144 -30 c-1 -21 3 -40 10
-45 9 -6 8 -8 -3 -8 -13 0 -13 -1 0 -10 13 -8 12 -10 -2 -10 -15 0 -18 10 -18
68 0 37 4 61 8 54 5 -7 7 -29 5 -49z m301 7 l-4 -50 38 -2 37 -1 -37 -4 c-21
-2 -38 -8 -38 -14 0 -5 -8 -9 -17 -9 -11 0 -14 3 -7 8 6 4 11 32 10 65 -1 35
3 57 10 57 7 0 10 -18 8 -50z m1909 37 c3 -8 1 -20 -4 -28 -6 -10 -9 -7 -9 14
0 29 5 35 13 14z m118 -115 c-2 -7 -6 -11 -8 -8 -8 7 -10 108 -4 126 7 17 18
-98 12 -118z m654 98 c0 -14 4 -28 10 -32 15 -11 -65 -40 -94 -35 -47 8 -56
12 -68 32 -29 47 -2 66 92 62 57 -2 60 -3 60 -27z m269 24 c55 -8 60 -27 17
-68 -24 -23 -35 -27 -74 -24 -25 2 -44 5 -42 7 2 2 -6 11 -18 21 -19 15 -20
21 -9 44 13 28 36 32 126 20z m-242 -36 c-8 -8 -9 -4 -5 13 4 13 8 18 11 10 2
-7 -1 -18 -6 -23z m-2652 7 c0 -8 -2 -15 -4 -15 -2 0 -6 7 -10 15 -3 8 -1 15
4 15 6 0 10 -7 10 -15z m1450 -1 c0 -8 -5 -12 -10 -9 -6 4 -8 11 -5 16 9 14
15 11 15 -7z m230 7 c0 -6 -4 -13 -10 -16 -5 -3 -10 1 -10 9 0 9 5 16 10 16 6
0 10 -4 10 -9z m60 -1 c0 -5 -4 -10 -10 -10 -5 0 -10 5 -10 10 0 6 5 10 10 10
6 0 10 -4 10 -10z m290 0 c0 -5 -4 -10 -10 -10 -5 0 -10 5 -10 10 0 6 5 10 10
10 6 0 10 -4 10 -10z m57 -12 c-3 -8 -6 -5 -6 6 -1 11 2 17 5 13 3 -3 4 -12 1
-19z m116 -31 c2 -26 0 -53 -5 -59 -4 -7 -8 15 -8 51 0 73 7 78 13 8z m248 19
c8 4 9 3 5 -5 -10 -16 13 -43 31 -37 8 3 12 2 9 -3 -8 -12 18 -21 61 -21 34 0
103 33 103 49 0 4 7 16 15 27 14 18 14 17 15 -13 0 -27 -7 -38 -42 -63 -83
-61 -211 -27 -231 61 -8 32 4 48 15 19 5 -13 13 -18 19 -14z m311 -20 c7 4 8
3 4 -4 -11 -17 38 -43 83 -44 48 0 107 31 105 56 -1 10 0 15 4 12 3 -3 10 2
17 11 18 25 24 2 8 -35 -46 -111 -265 -87 -263 30 1 22 1 22 16 -5 8 -16 20
-25 26 -21z m-730 -54 c-7 -21 -15 -5 -14 30 0 51 4 56 11 18 4 -19 5 -41 3
-48z m-2768 26 c8 -6 7 -8 -1 -8 -7 0 -13 -8 -14 -17 0 -14 -2 -15 -6 -3 -3 8
-11 18 -17 22 -8 5 -7 8 2 8 6 0 13 10 13 23 1 20 2 20 6 2 3 -11 10 -23 17
-27z m322 7 c0 -34 -10 -47 -18 -23 -6 16 3 58 11 58 4 0 7 -16 7 -35z m418
20 c-4 -8 -10 -15 -14 -15 -4 0 -10 7 -14 15 -4 10 1 15 14 15 13 0 18 -5 14
-15z m52 -20 c0 -19 -3 -35 -7 -35 -4 0 -9 16 -11 35 -2 21 0 35 7 35 6 0 11
-16 11 -35z m291 29 c-3 -3 -12 -4 -19 -1 -8 3 -5 6 6 6 11 1 17 -2 13 -5z
m59 -34 c1 -21 -2 -37 -6 -35 -13 8 -17 75 -5 75 5 0 11 -18 11 -40z m1044 4
c0 -19 -4 -33 -8 -30 -4 2 -7 17 -6 33 3 33 3 33 9 33 3 0 5 -16 5 -36z m60
26 c0 -5 -5 -10 -11 -10 -5 0 -7 5 -4 10 3 6 8 10 11 10 2 0 4 -4 4 -10z m167
-25 c-6 -51 -17 -56 -17 -7 0 23 5 42 10 42 6 0 9 -15 7 -35z m410 13 c-3 -8
-6 -5 -6 6 -1 11 2 17 5 13 3 -3 4 -12 1 -19z m55 -8 c3 -16 1 -35 -4 -42 -4
-8 -8 4 -8 30 0 49 6 55 12 12z m-295 -32 c-2 -13 -4 -5 -4 17 -1 22 1 32 4
23 2 -10 2 -28 0 -40z m860 -5 c-3 -10 -5 -2 -5 17 0 19 2 27 5 18 2 -10 2
-26 0 -35z m-3181 12 c-4 -24 -16 -30 -16 -7 0 12 4 22 9 22 5 0 8 -7 7 -15z
m647 -5 c-3 -11 -7 -20 -9 -20 -2 0 -4 9 -4 20 0 11 4 20 9 20 5 0 7 -9 4 -20z
m174 0 c1 -11 -2 -20 -8 -20 -5 0 -9 9 -9 20 0 11 4 20 8 20 4 0 8 -9 9 -20z
m123 5 c0 -8 -4 -15 -8 -15 -5 0 -9 7 -9 15 0 8 4 15 9 15 4 0 8 -7 8 -15z
m1270 5 c0 -5 -5 -10 -11 -10 -5 0 -7 5 -4 10 3 6 8 10 11 10 2 0 4 -4 4 -10z
m350 -12 c0 -18 -2 -20 -9 -8 -6 8 -7 18 -5 22 9 14 14 9 14 -14z m-586 -3
c-4 -8 -8 -15 -10 -15 -2 0 -4 7 -4 15 0 8 4 15 10 15 5 0 7 -7 4 -15z m923
-7 c-3 -8 -6 -5 -6 6 -1 11 2 17 5 13 3 -3 4 -12 1 -19z m-2424 5 c-7 -2 -19
-2 -25 0 -7 3 -2 5 12 5 14 0 19 -2 13 -5z m753 -24 c-34 -27 -136 -59 -184
-58 -30 0 -23 4 38 19 41 11 93 28 115 39 51 27 65 27 31 0z m469 1 c9 -14 73
-41 112 -47 18 -2 45 -9 60 -14 22 -7 18 -8 -22 -4 -93 9 -148 25 -190 59 -20
15 -19 15 7 16 15 0 30 -5 33 -10z m-728 -66 c-3 -3 -12 -4 -19 -1 -8 3 -5 6
6 6 11 1 17 -2 13 -5z m-330 -10 c-3 -3 -12 -4 -19 -1 -8 3 -5 6 6 6 11 1 17
-2 13 -5z m2546 -11 c-7 -2 -19 -2 -25 0 -7 3 -2 5 12 5 14 0 19 -2 13 -5z
m44 1 c-3 -3 -12 -4 -19 -1 -8 3 -5 6 6 6 11 1 17 -2 13 -5z"/>
<path d="M5060 3859 c0 -5 5 -7 10 -4 6 3 10 8 10 11 0 2 -4 4 -10 4 -5 0 -10
-5 -10 -11z"/>
<path d="M5018 3493 c6 -2 18 -2 25 0 6 3 1 5 -13 5 -14 0 -19 -2 -12 -5z"/>
<path d="M4198 3429 c-8 -6 1 -9 25 -9 20 0 37 2 37 4 0 9 -50 12 -62 5z"/>
<path d="M4301 3426 c8 -8 108 -10 116 -3 3 4 -22 7 -57 7 -35 0 -61 -2 -59
-4z"/>
<path d="M4458 3413 c12 -2 30 -2 40 0 9 3 -1 5 -23 4 -22 0 -30 -2 -17 -4z"/>
<path d="M4565 3410 c28 -5 66 -8 85 -8 28 1 25 2 -15 8 -27 5 -66 8 -85 8
-28 -1 -25 -2 15 -8z"/>
<path d="M4318 3983 c6 -2 18 -2 25 0 6 3 1 5 -13 5 -14 0 -19 -2 -12 -5z"/>
<path d="M4378 3983 c7 -3 16 -2 19 1 4 3 -2 6 -13 5 -11 0 -14 -3 -6 -6z"/>
<path d="M4213 3973 c15 -2 37 -2 50 0 12 2 0 4 -28 4 -27 0 -38 -2 -22 -4z"/>
<path d="M3931 3734 c0 -11 3 -14 6 -6 3 7 2 16 -1 19 -3 4 -6 -2 -5 -13z"/>
<path d="M3921 3695 c-1 -11 -4 -31 -6 -45 l-6 -25 11 25 c6 13 9 33 7 45 -4
19 -4 19 -6 0z"/>
<path d="M4690 3255 c0 -9 9 -15 25 -15 16 0 25 6 25 15 0 9 -9 15 -25 15 -16
0 -25 -6 -25 -15z"/>
<path d="M3222 3123 c-18 -29 -30 -34 -100 -35 -54 -2 -33 -18 23 -18 43 0 90
26 90 50 0 8 6 14 13 13 6 -2 12 2 12 7 0 19 -20 10 -38 -17z"/>
<path d="M3074 3028 c0 -15 7 -17 41 -11 22 3 41 6 42 7 1 1 -17 6 -40 12 -38
8 -43 7 -43 -8z"/>
<path d="M3478 3013 c18 -2 45 -2 60 0 15 2 0 4 -33 4 -33 0 -45 -2 -27 -4z"/>
<path d="M4068 3013 c7 -3 16 -2 19 1 4 3 -2 6 -13 5 -11 0 -14 -3 -6 -6z"/>
<path d="M5795 2741 c-8 -8 -166 -15 -230 -12 -5 1 -551 2 -1213 2 -893 2
-1206 -1 -1215 -10 -8 -8 -6 -11 9 -11 19 0 21 -9 30 -104 7 -84 7 -103 -4
-102 -8 1 -19 -14 -25 -33 -13 -35 -70 -70 -83 -49 -7 12 -6 131 2 168 3 14 8
49 11 78 6 51 5 52 -20 52 -14 0 -37 4 -51 10 -14 5 -26 7 -26 4 0 -2 10 -8
23 -13 21 -8 22 -13 22 -139 0 -128 1 -132 26 -158 l26 -26 49 23 49 24 710
-2 c932 -3 2335 -14 2335 -19 0 -2 -11 -28 -24 -59 -24 -52 -24 -55 -6 -55 13
0 28 16 43 47 l24 47 21 -47 c15 -34 27 -47 41 -47 18 0 19 3 11 25 -5 14 -16
38 -25 55 -20 38 -19 40 10 40 22 0 25 -4 25 -38 0 -57 25 -132 61 -180 l31
-43 140 3 140 3 30 42 c24 32 32 58 41 123 l11 82 48 -4 c27 -3 56 -12 66 -22
31 -28 93 -15 92 18 0 6 -6 4 -13 -5 -10 -13 -12 -3 -13 55 0 101 -23 225 -43
235 -31 17 -100 22 -351 26 -218 4 -527 6 -595 3 -84 -3 -185 3 -180 12 8 13
2 13 -10 1z m-850 -136 c1676 -6 1851 -7 1861 -18 3 -3 -91 -3 -208 -1 -162 3
-2620 13 -3305 14 -57 0 -103 4 -103 9 0 5 8 8 18 6 9 -2 791 -7 1737 -10z
m1915 -5 c0 -5 -8 -10 -17 -10 -15 0 -16 2 -3 10 19 12 20 12 20 0z m-1151
-24 c-2 -2 -57 -6 -122 -8 -124 -6 -175 -22 -96 -32 52 -6 160 -13 319 -21 63
-3 146 -8 185 -11 38 -3 137 -7 220 -10 196 -7 194 -7 204 -22 7 -11 9 -11 13
0 4 11 41 11 197 5 106 -5 199 -6 207 -3 17 7 19 67 2 84 -17 17 -2 27 17 12
9 -7 14 -15 11 -17 -2 -2 -1 -16 3 -31 6 -21 2 -32 -21 -53 -24 -24 -34 -27
-75 -24 -26 2 -132 5 -236 5 -140 1 -185 4 -180 13 5 9 3 9 -8 1 -20 -16 -228
-17 -248 -1 -12 9 -13 9 -7 0 4 -7 3 -13 -3 -13 -5 0 -13 5 -16 10 -4 6 -12 7
-18 3 -19 -11 -267 -10 -268 2 0 6 -2 6 -5 0 -3 -7 -167 -10 -487 -8 -265 1
-829 3 -1254 5 -424 1 -770 5 -767 7 6 7 22 8 274 15 124 4 239 9 255 11 17 2
116 7 220 10 105 4 215 8 245 10 30 2 96 7 145 10 106 7 134 13 114 26 -20 12
-102 11 -94 -1 3 -5 2 -10 -3 -10 -6 0 -12 7 -15 15 -5 11 -32 15 -124 18 -65
1 228 4 651 5 423 1 767 0 765 -2z m129 -3 c-21 -2 -55 -2 -75 0 -21 2 -4 4
37 4 41 0 58 -2 38 -4z m185 0 c-7 -2 -19 -2 -25 0 -7 3 -2 5 12 5 14 0 19 -2
13 -5z m-2786 -32 c1 -11 -4 -24 -12 -31 -12 -10 -15 -9 -15 4 0 9 4 16 9 16
6 0 8 10 6 21 -3 12 -1 19 2 15 4 -4 8 -15 10 -25z m57 0 c-13 -14 -40 -8 -41
8 -1 16 2 17 22 7 13 -6 22 -13 19 -15z m24 -18 c-12 -13 -26 -23 -31 -23 -5
0 2 9 16 20 17 13 24 27 21 38 -5 14 -4 15 5 2 7 -11 5 -20 -11 -37z m512 33
c0 -2 -7 -7 -16 -10 -8 -3 -12 -2 -9 4 6 10 25 14 25 6z m194 -26 c4 0 4 5 0
12 -4 7 -3 8 4 4 19 -11 14 -26 -8 -26 -11 0 -20 5 -20 11 0 5 -4 8 -8 5 -5
-3 -9 1 -9 9 0 13 3 13 17 0 9 -8 20 -15 24 -15z m95 1 c-6 -2 -18 4 -27 13
-15 15 -15 15 10 4 15 -7 23 -15 17 -17z m2019 18 c-13 -9 -11 -9 35 -13 6 -1
11 5 9 13 -2 11 0 12 11 3 8 -7 18 -8 22 -4 5 4 5 -2 1 -12 -7 -19 -6 -19 14
-1 11 10 20 16 20 12 0 -3 3 -13 7 -23 5 -14 2 -16 -28 -11 -19 4 -83 8 -144
10 -149 5 -155 6 -155 17 0 5 34 9 76 9 42 0 77 1 79 3 2 2 18 3 35 4 21 1 27
-2 18 -7z m161 -3 c9 -6 12 -5 8 1 -7 12 73 10 91 -1 6 -4 13 -2 17 4 8 13 25
3 25 -13 0 -7 -4 -6 -10 3 -5 8 -10 10 -10 4 0 -6 3 -14 7 -17 8 -8 35 12 29
22 -3 4 5 7 17 8 12 0 16 -1 10 -4 -19 -7 -15 -22 5 -18 9 2 19 4 22 5 3 1 13
2 23 1 9 -1 17 3 17 8 0 6 5 11 11 11 5 0 7 -4 4 -10 -3 -5 -3 -10 2 -11 4 0
16 -2 26 -4 9 -2 15 1 11 6 -3 5 -10 6 -16 3 -7 -4 -8 -2 -4 5 6 9 13 8 31 -3
17 -12 26 -13 31 -4 5 7 3 8 -6 3 -8 -5 -11 -4 -7 2 3 5 23 8 44 6 21 -2 60
-3 86 -3 38 1 47 -2 41 -12 -6 -10 -5 -11 7 -1 12 10 15 7 17 -18 l2 -30 -97
7 c-54 3 -128 7 -165 7 -38 1 -68 5 -68 10 0 5 -8 3 -17 -4 -15 -12 -16 -12
-8 1 7 13 6 13 -7 2 -16 -13 -47 -7 -60 12 -6 8 -8 8 -8 0 0 -7 -22 -11 -55
-12 -39 0 -53 3 -48 12 4 6 1 6 -9 -2 -13 -10 -17 -10 -22 4 -13 33 0 40 33
20z m-2454 -16 c-10 -11 -21 -18 -23 -15 -3 3 3 12 14 20 27 20 30 18 9 -5z
m1928 13 c-13 -2 -33 -2 -45 0 -13 2 -3 4 22 4 25 0 35 -2 23 -4z m142 -3 c7
-11 -88 -11 -105 -1 -9 7 5 9 43 9 32 -1 60 -5 62 -8z m-2425 -10 c0 -5 -5
-10 -11 -10 -5 0 -7 5 -4 10 3 6 8 10 11 10 2 0 4 -4 4 -10z m405 1 c3 -5 1
-12 -5 -16 -5 -3 -10 1 -10 9 0 18 6 21 15 7z m65 3 c0 -8 -19 -13 -24 -6 -3
5 1 9 9 9 8 0 15 -2 15 -3z m-595 -14 c-3 -5 2 -10 11 -10 10 0 15 -3 11 -6
-10 -10 -39 5 -32 16 3 5 8 10 11 10 3 0 2 -4 -1 -10z m-28 -22 c-3 -8 -6 -5
-6 6 -1 11 2 17 5 13 3 -3 4 -12 1 -19z m93 6 c0 -8 -19 -13 -24 -6 -3 5 1 9
9 9 8 0 15 -2 15 -3z m-180 -34 c8 -5 11 -10 5 -10 -5 0 -17 5 -25 10 -8 5
-10 10 -5 10 6 0 17 -5 25 -10z"/>
<path d="M6320 2540 c0 -5 5 -10 11 -10 5 0 7 5 4 10 -3 6 -8 10 -11 10 -2 0
-4 -4 -4 -10z"/>
<path d="M6684 2539 c-3 -6 -2 -15 3 -20 5 -5 9 -1 10 11 2 22 -2 25 -13 9z"/>
<path d="M6366 2528 c3 -5 10 -6 15 -3 13 9 11 12 -6 12 -8 0 -12 -4 -9 -9z"/>
<path d="M6505 2530 c-3 -5 -1 -10 4 -10 6 0 11 5 11 10 0 6 -2 10 -4 10 -3 0
-8 -4 -11 -10z"/>
<path d="M3250 2411 c0 -50 31 -154 57 -193 31 -45 59 -51 195 -42 92 6 104
10 125 33 42 45 63 101 63 169 l0 62 -220 0 -220 0 0 -29z"/>
<path d="M3726 1968 c-21 -172 -44 -357 -50 -410 -12 -91 -11 -98 5 -98 14 0
18 14 24 78 11 127 8 122 80 122 l62 0 7 -67 c10 -105 17 -133 32 -133 8 0 14
3 14 8 0 9 -98 726 -106 775 -3 20 -11 37 -18 37 -9 0 -23 -88 -50 -312z m83
-11 c17 -136 31 -251 31 -257 0 -6 -27 -10 -61 -10 l-61 0 5 33 c3 17 16 134
28 259 13 125 24 226 25 225 2 -1 16 -114 33 -250z"/>
<path d="M3980 1890 c0 -377 1 -391 20 -410 29 -29 119 -28 146 1 18 20 19 44
22 410 2 339 1 389 -12 389 -13 0 -16 -52 -18 -384 -2 -211 -6 -388 -10 -392
-10 -9 -91 -10 -106 0 -9 5 -12 108 -12 392 0 335 -2 384 -15 384 -13 0 -15
-50 -15 -390z"/>
<path d="M4230 2265 c0 -11 11 -15 40 -15 l40 0 0 -395 c0 -343 2 -395 15
-395 13 0 15 53 17 393 l3 392 43 3 c28 2 42 8 42 18 0 11 -20 14 -100 14 -82
0 -100 -3 -100 -15z"/>
<path d="M4512 2264 l-22 -15 0 -379 0 -379 22 -15 c33 -24 101 -21 124 5 18
20 19 41 19 389 0 348 -1 369 -19 389 -23 26 -91 29 -124 5z m86 -20 l22 -6 0
-368 0 -368 -27 -5 c-15 -3 -37 -1 -50 4 l-23 9 0 360 0 361 23 9 c28 11 27
11 55 4z"/>
<path d="M4780 2260 c-18 -18 -20 -33 -20 -194 0 -208 0 -209 105 -218 l30 -3
3 -168 2 -167 -26 -10 c-16 -7 -37 -7 -53 -2 -25 8 -26 11 -29 105 -2 77 -6
97 -17 97 -12 0 -15 -19 -15 -103 0 -124 8 -137 87 -137 81 0 83 5 83 217 0
207 1 204 -84 213 l-51 5 -3 168 -2 167 26 10 c28 11 64 4 76 -14 4 -6 8 -55
8 -108 0 -80 3 -98 15 -98 12 0 15 19 15 110 0 132 -10 150 -85 150 -32 0 -51
-6 -65 -20z"/>
<path d="M5144 2258 c3 -13 6 -197 6 -410 0 -338 2 -388 15 -388 13 0 15 23
15 145 l0 145 28 0 c29 0 29 -1 68 -145 32 -122 41 -145 57 -145 12 0 17 5 14
13 -11 29 -67 247 -67 261 0 9 7 16 15 16 8 0 22 11 30 24 14 21 16 58 13 251
-4 268 3 255 -121 255 -77 0 -79 -1 -73 -22z m157 -29 c12 -20 11 -406 -1
-430 -9 -15 -22 -19 -65 -19 l-55 0 0 236 0 236 56 -4 c33 -3 60 -11 65 -19z"/>
<path d="M5430 1870 l0 -410 85 0 c69 0 85 3 85 15 0 12 -14 15 -65 15 l-65 0
0 185 0 185 50 0 c43 0 50 3 50 20 0 17 -7 20 -50 20 l-50 0 0 175 0 175 60 0
c47 0 60 3 60 15 0 12 -16 15 -80 15 l-80 0 0 -410z"/>
<path d="M5630 2265 c0 -11 11 -15 40 -15 l40 0 0 -395 c0 -343 2 -395 15
-395 13 0 15 53 17 393 l3 392 38 3 c24 2 37 8 37 18 0 11 -19 14 -95 14 -78
0 -95 -3 -95 -15z"/>
<path d="M5884 2258 c3 -13 6 -197 6 -410 0 -335 2 -388 15 -388 12 0 15 25
17 143 l3 142 27 3 c23 3 28 -2 36 -30 5 -18 22 -82 38 -142 26 -96 44 -130
60 -114 2 3 -11 63 -31 134 -40 145 -41 154 -21 154 8 0 22 10 30 22 13 19 16
60 16 245 0 272 4 263 -121 263 -79 0 -81 -1 -75 -22z m140 -18 l26 -10 0
-213 c0 -152 -3 -216 -12 -225 -7 -7 -36 -12 -65 -12 l-53 0 0 228 c0 126 3
232 7 235 10 10 68 8 97 -3z"/>
<path d="M6190 2260 c-19 -19 -20 -33 -20 -390 0 -357 1 -371 20 -390 24 -24
96 -27 126 -6 18 14 19 31 22 390 3 366 2 376 -18 396 -28 28 -102 28 -130 0z
m112 -33 c11 -17 10 -699 -1 -715 -9 -14 -71 -19 -90 -7 -8 4 -11 122 -11 366
l0 360 23 9 c26 11 69 4 79 -13z"/>
</g>
</svg>
