<?xml version="1.0" standalone="no"?>
<!DOCTYPE svg PUBLIC "-//W3C//DTD SVG 20010904//EN"
 "http://www.w3.org/TR/2001/REC-SVG-20010904/DTD/svg10.dtd">
<svg version="1.0" xmlns="http://www.w3.org/2000/svg"
 width="526.000000pt" height="526.000000pt" viewBox="0 0 526.000000 526.000000"
 preserveAspectRatio="xMidYMid meet">

<g transform="translate(0.000000,526.000000) scale(0.100000,-0.100000)"
fill="#000000" stroke="none">
<path d="M2375 5249 c-215 -21 -508 -90 -700 -165 -238 -94 -501 -247 -705
-410 -108 -86 -305 -284 -393 -394 -258 -323 -447 -723 -526 -1110 -40 -198
-46 -271 -46 -540 0 -269 6 -342 46 -540 79 -387 268 -787 526 -1110 88 -110
285 -308 393 -394 275 -219 598 -388 919 -481 1354 -389 2771 346 3225 1673
98 286 139 541 139 852 0 311 -41 566 -139 852 -392 1148 -1529 1881 -2739
1767z m243 -1596 c-32 -2 -86 -2 -120 0 -35 2 -9 3 57 3 66 0 94 -1 63 -3z
m180 0 c-10 -2 -28 -2 -40 0 -13 2 -5 4 17 4 22 1 32 -1 23 -4z m-681 -9 c-3
-3 -12 -4 -19 -1 -8 3 -5 6 6 6 11 1 17 -2 13 -5z m100 0 c-3 -3 -12 -4 -19
-1 -8 3 -5 6 6 6 11 1 17 -2 13 -5z m913 -4 c13 -9 13 -10 0 -11 -8 -1 62 -7
155 -13 94 -6 172 -8 173 -4 2 5 18 7 35 7 l32 -1 -30 -9 c-23 -6 -17 -7 25
-4 41 3 50 2 35 -6 -16 -7 -14 -8 13 -4 22 3 31 1 26 -6 -4 -7 1 -9 14 -5 15
5 25 1 34 -13 7 -12 18 -21 24 -21 23 0 54 -112 89 -312 6 -37 7 -38 48 -39
109 -3 400 -18 498 -25 69 -5 81 -3 129 21 37 19 56 23 63 16 7 -7 5 -16 -7
-30 -16 -18 -15 -19 28 -25 50 -8 206 -80 206 -96 0 -5 -7 -10 -16 -10 -8 0
-13 -4 -9 -9 5 -10 -6 -15 -62 -26 -18 -4 -35 -10 -37 -14 -3 -4 8 -27 25 -52
30 -46 42 -90 14 -53 -14 18 -14 18 -15 -9 0 -21 6 -30 21 -34 18 -5 20 -11
14 -42 -10 -50 -31 -87 -65 -113 -22 -16 -28 -27 -24 -41 5 -17 2 -18 -25 -12
-18 4 -99 7 -181 7 -83 0 -147 4 -144 9 3 5 -1 9 -8 10 -7 0 3 5 22 11 49 14
90 55 90 91 l0 30 -23 -34 c-29 -43 -60 -59 -116 -59 -40 0 -49 5 -88 45 -41
44 -43 44 -43 19 0 -33 49 -82 90 -90 49 -10 45 -24 -7 -25 -223 -7 -883 2
-883 12 0 5 -36 9 -80 9 -44 0 -80 -4 -80 -9 0 -8 -16 -7 -108 10 -33 7 -50
14 -45 21 4 7 1 9 -8 6 -9 -3 -25 5 -38 18 -13 13 -27 24 -31 24 -5 0 -22 19
-39 42 -37 50 -41 43 -6 -12 14 -22 25 -44 25 -50 0 -5 7 -10 16 -10 8 0 13
-4 9 -10 -12 -20 70 -60 146 -70 42 -6 384 -13 799 -17 399 -3 741 -8 760 -12
26 -5 36 -13 38 -29 2 -14 17 -30 40 -41 71 -37 117 -106 87 -131 -12 -10 -15
-10 -15 2 0 16 98 14 -1570 23 -338 2 -1080 4 -1647 5 -835 2 -1033 5 -1033
15 0 7 9 23 20 36 19 22 20 22 8 2 -7 -12 -10 -24 -7 -27 8 -8 4219 -14 4224
-6 6 9 -43 54 -80 73 -27 13 -33 13 -59 0 -27 -14 -136 -15 -926 -13 -1133 3
-1161 3 -1184 14 -15 7 -17 6 -12 -3 7 -10 -32 -11 -185 -7 -107 4 -504 8
-884 11 -594 4 -696 7 -737 21 -42 14 -47 18 -38 35 6 10 19 23 29 28 11 6
320 11 792 13 856 4 836 3 922 69 46 35 113 126 101 137 -4 4 -9 0 -12 -8 -7
-21 -95 -108 -89 -88 5 13 -1 12 -30 -8 -20 -13 -40 -24 -46 -24 -6 0 -8 -3
-5 -6 4 -3 20 2 37 10 34 18 41 19 41 8 0 -14 -72 -32 -100 -26 -20 5 -22 3
-10 -5 11 -8 1 -9 -40 -6 -42 4 -49 2 -30 -5 17 -6 -7 -8 -80 -5 -58 3 -140 2
-183 -3 -43 -4 -80 -6 -83 -3 -3 4 -85 7 -182 7 -500 3 -597 6 -565 15 18 5
35 14 38 19 9 15 25 12 25 -5 0 -8 5 -15 10 -15 6 0 8 11 6 25 -3 13 1 38 7
55 9 25 9 33 -5 47 -16 15 -17 15 -12 -4 6 -23 -11 -40 -22 -22 -4 8 -3 9 4 5
7 -4 12 -4 12 1 0 4 -17 17 -38 29 -36 21 -99 24 -160 9 -21 -5 -22 -7 -7 -36
9 -16 25 -39 37 -51 17 -17 24 -19 40 -9 15 9 23 9 33 1 10 -8 18 -7 34 6 19
16 51 28 51 18 0 -15 -71 -44 -108 -44 -37 0 -47 5 -87 47 l-45 47 0 -30 c0
-35 42 -80 86 -94 l29 -8 -30 -2 c-66 -5 -215 -5 -215 0 0 3 18 13 39 23 27
12 43 28 50 49 12 33 1 58 -25 58 -7 0 -17 6 -21 14 -8 15 -40 19 -132 17 -53
-1 -53 -1 -47 -28 3 -16 3 -22 0 -15 -9 20 -34 14 -34 -10 0 -33 -17 -9 -25
35 -6 30 -4 37 9 37 13 0 14 4 5 24 -11 23 -3 47 33 97 19 27 3 46 -45 53 -47
7 -77 29 -57 41 5 3 10 1 10 -6 0 -7 9 -9 22 -5 34 9 947 -12 1308 -30 173 -8
347 -21 387 -28 39 -6 69 -8 66 -3 -3 5 12 6 37 2 54 -9 46 9 -10 26 -22 7
-38 14 -36 16 2 3 34 -5 70 -16 40 -12 79 -18 99 -15 18 3 44 6 60 6 15 1 27
2 27 3 0 1 -5 16 -11 32 -9 27 -17 32 -72 44 -34 8 -69 13 -77 12 -61 -8 -91
-9 -95 -2 -3 4 -18 4 -33 0 -15 -4 -56 -6 -92 -4 -128 5 -573 -1 -595 -8 -5
-1 26 -6 70 -9 l80 -6 -87 -2 c-49 -1 -87 1 -85 6 3 9 -6 12 -34 12 -11 0 -17
-4 -14 -10 4 -6 -12 -10 -40 -10 -38 0 -46 3 -41 15 3 8 1 15 -4 15 -6 0 -10
-5 -10 -11 0 -7 -131 -10 -445 -7 -245 2 -445 4 -445 5 0 11 115 57 163 64 70
11 75 15 59 31 -33 33 0 37 73 9 28 -11 61 -17 75 -15 23 3 567 27 600 25 8 0
34 2 58 5 l42 5 -6 112 c-3 62 -10 117 -15 123 -18 22 44 68 113 83 71 16 230
29 438 36 365 13 464 14 470 4 4 -6 16 -6 31 -1 57 21 647 -5 877 -38 112 -16
165 -50 144 -93 -6 -12 -13 -70 -16 -128 -6 -104 -5 -107 17 -113 43 -11 97
-7 97 8 0 41 -44 235 -61 268 -36 70 -68 82 -297 102 -252 22 -381 27 -802 27
-550 1 -880 -20 -960 -61 -45 -23 -53 -33 -80 -95 -13 -32 -19 -39 -15 -20 13
65 45 113 89 134 23 12 48 21 55 21 7 0 10 3 8 8 -3 4 16 7 41 7 26 0 146 6
267 14 121 7 420 14 665 14 245 1 407 4 360 8 l-85 5 95 2 c52 1 102 -3 110
-8z m143 -7 c-13 -2 -35 -2 -50 0 -16 2 -5 4 22 4 28 0 40 -2 28 -4z m-1440
-10 c-7 -2 -21 -2 -30 0 -10 3 -4 5 12 5 17 0 24 -2 18 -5z m1590 0 c-13 -2
-33 -2 -45 0 -13 2 -3 4 22 4 25 0 35 -2 23 -4z m-1916 -295 c-3 -8 -6 -5 -6
6 -1 11 2 17 5 13 3 -3 4 -12 1 -19z m436 -255 c-13 -2 -33 -2 -45 0 -13 2 -3
4 22 4 25 0 35 -2 23 -4z m140 -10 c-7 -2 -21 -2 -30 0 -10 3 -4 5 12 5 17 0
24 -2 18 -5z m54 1 c-3 -3 -12 -4 -19 -1 -8 3 -5 6 6 6 11 1 17 -2 13 -5z
m-1301 -276 c4 -7 3 -8 -4 -4 -7 4 -12 2 -12 -4 0 -16 -47 -60 -65 -60 -8 0
-15 4 -15 10 0 5 7 7 15 4 8 -4 15 -1 15 6 0 6 4 9 10 5 5 -3 16 8 25 25 17
33 21 35 31 18z m-113 -65 c-7 -2 -19 -2 -25 0 -7 3 -2 5 12 5 14 0 19 -2 13
-5z m-4 -43 c25 0 6 -9 -32 -15 -31 -5 -36 -4 -31 10 5 11 14 15 28 11 11 -3
27 -6 35 -6z m2509 -17 c-10 -2 -26 -2 -35 0 -10 3 -2 5 17 5 19 0 27 -2 18
-5z m-83 -287 c1239 -4 1350 -7 1377 -34 13 -13 29 -105 35 -204 3 -63 8 -86
16 -81 7 4 6 -1 -2 -10 -17 -21 -50 -22 -79 -2 -12 9 -44 19 -72 22 l-50 6 0
-44 c-1 -66 -18 -130 -47 -171 l-26 -38 -143 0 -144 0 -36 55 c-28 41 -38 68
-41 108 -6 83 -11 97 -33 97 -25 0 -25 -20 0 -70 25 -48 25 -50 0 -50 -14 0
-25 12 -36 40 -9 22 -19 40 -24 40 -4 0 -15 -18 -25 -40 -12 -27 -24 -40 -38
-40 -11 0 -17 5 -14 13 3 6 13 31 22 55 10 24 16 45 13 47 -2 2 -478 7 -1058
10 -580 3 -1176 7 -1325 8 -148 1 -242 1 -207 -1 l62 -3 0 -58 c0 -72 -14
-115 -54 -163 l-30 -36 -116 -7 c-127 -7 -159 -1 -186 40 -21 32 -53 148 -54
193 0 30 -2 32 -35 32 -20 0 -52 -7 -72 -15 -45 -19 -53 -19 -27 0 12 8 27 29
35 47 7 18 17 36 22 39 4 3 5 49 1 103 -6 89 -8 96 -28 96 -17 0 -18 2 -6 10
9 5 228 10 544 10 291 0 531 2 533 3 1 2 15 2 30 0 16 -1 609 -5 1318 -7z
m1535 -2 c0 -3 -16 -12 -35 -20 -20 -8 -40 -25 -45 -37 -8 -21 -9 -21 -9 6 -1
15 5 29 12 31 10 3 67 22 75 25 1 1 2 -1 2 -5z m-4026 -54 c-1 -25 -5 -90 -9
-144 -7 -90 -6 -100 10 -112 11 -8 14 -14 9 -14 -6 0 -21 12 -35 26 -23 25
-24 32 -24 160 l0 135 25 -3 c23 -3 25 -7 24 -48z m3943 -52 c-3 -8 -6 -5 -6
6 -1 11 2 17 5 13 3 -3 4 -12 1 -19z m0 -75 c-3 -10 -5 -4 -5 12 0 17 2 24 5
18 2 -7 2 -21 0 -30z m-3222 -295 c9 -54 105 -763 105 -776 0 -7 -6 -12 -14
-12 -10 0 -17 15 -21 43 -3 23 -9 67 -13 97 l-7 55 -62 3 -61 3 -6 -38 c-3
-21 -8 -66 -12 -100 -4 -44 -10 -63 -20 -63 -8 0 -14 9 -14 21 0 29 90 771 95
787 8 23 24 12 30 -20z m215 -351 c0 -285 3 -386 12 -395 7 -7 29 -12 49 -12
71 0 69 -13 69 412 0 299 3 379 13 375 9 -3 12 -91 12 -396 0 -451 7 -421 -96
-421 -93 0 -89 -20 -89 432 0 338 2 388 15 388 13 0 15 -49 15 -383z m415 363
c0 -10 -12 -16 -37 -18 l-38 -3 0 -390 c0 -382 0 -389 -20 -389 -20 0 -20 7
-20 389 l0 390 -37 3 c-27 2 -39 8 -41 21 -3 16 5 17 95 15 79 -2 98 -6 98
-18z m210 -5 l25 -24 0 -358 c0 -268 -3 -364 -13 -383 -11 -21 -21 -25 -66
-28 -96 -6 -91 -27 -91 405 0 360 1 374 20 393 29 29 94 27 125 -5z m275 5
c18 -18 20 -33 20 -130 0 -91 -3 -110 -15 -110 -12 0 -15 17 -15 94 0 122 -2
126 -55 126 -30 0 -45 -5 -49 -16 -8 -20 -8 -298 0 -318 4 -11 19 -16 48 -16
23 0 52 -7 64 -16 21 -15 22 -20 22 -203 0 -132 -4 -191 -12 -199 -18 -18
-123 -15 -142 4 -23 22 -23 214 -1 214 12 0 15 -17 15 -89 0 -102 8 -114 67
-109 l38 3 0 175 0 175 -54 5 c-79 8 -81 13 -81 214 0 94 4 176 8 182 25 37
110 46 142 14z m410 0 c19 -19 20 -33 20 -249 l0 -230 -31 -24 -32 -25 36
-133 c20 -73 35 -135 32 -137 -15 -15 -34 17 -54 89 -53 198 -49 189 -82 189
l-29 0 0 -140 c0 -117 -2 -140 -15 -140 -13 0 -15 55 -17 403 -2 221 -2 405 0
410 2 4 37 7 78 7 61 0 78 -4 94 -20z m275 0 c0 -11 -15 -16 -63 -18 l-62 -3
2 -172 3 -172 53 -3 c37 -2 52 -7 52 -18 0 -10 -14 -14 -55 -14 l-55 0 0 -185
0 -185 65 0 c51 0 65 -3 65 -15 0 -12 -16 -15 -80 -15 l-80 0 0 410 0 411 78
-3 c60 -2 77 -6 77 -18z m230 0 c0 -10 -13 -16 -42 -18 l-43 -3 0 -390 c0
-339 -2 -389 -15 -389 -13 0 -15 50 -15 389 l0 390 -37 3 c-27 2 -39 8 -41 21
-3 16 5 17 95 15 79 -2 98 -6 98 -18z m235 0 c19 -19 20 -33 20 -246 0 -224
-5 -264 -35 -264 -7 0 -16 -4 -19 -8 -3 -5 10 -67 29 -138 40 -149 39 -144 20
-144 -15 0 -19 13 -67 190 -22 78 -26 85 -51 88 l-27 3 0 -140 c0 -134 -1
-141 -20 -141 -20 0 -20 7 -20 410 l0 410 75 0 c62 0 79 -4 95 -20z m260 0
c19 -19 20 -33 20 -392 0 -425 3 -408 -82 -408 -35 0 -54 6 -68 20 -19 19 -20
33 -20 385 l0 366 25 24 c31 32 96 34 125 5z"/>
<path d="M2464 3525 c-3 -8 -3 -19 1 -25 7 -12 295 -14 295 -2 -1 21 -20 30
-72 35 -50 4 -57 2 -62 -15 -5 -22 -26 -16 -26 8 0 20 -128 20 -136 -1z"/>
<path d="M1623 3319 c3 -52 6 -95 7 -96 0 -2 174 -3 387 -3 257 0 406 4 444
12 51 10 60 9 99 -10 l42 -21 44 22 c40 19 49 20 89 9 26 -7 112 -12 204 -12
154 0 159 1 217 29 32 16 78 31 100 35 59 8 151 -11 211 -45 55 -30 97 -37
109 -17 7 11 19 188 12 188 -1 0 -25 -7 -53 -16 -43 -13 -94 -14 -350 -8 -165
4 -570 8 -900 9 -330 1 -615 5 -634 10 l-34 8 6 -94z"/>
<path d="M1728 3403 c6 -2 18 -2 25 0 6 3 1 5 -13 5 -14 0 -19 -2 -12 -5z"/>
<path d="M3217 3246 c-64 -17 -69 -26 -16 -27 24 -1 93 -3 152 -5 59 -2 105 1
102 5 -10 17 -98 41 -144 40 -25 0 -67 -6 -94 -13z"/>
<path d="M2538 3193 c6 -2 18 -2 25 0 6 3 1 5 -13 5 -14 0 -19 -2 -12 -5z"/>
<path d="M2646 3183 c-4 -5 -29 -8 -54 -8 -44 0 -47 -2 -44 -25 3 -31 11 -38
22 -20 15 23 12 -6 -2 -31 -10 -17 -10 -23 0 -26 6 -3 12 -12 12 -21 0 -15 2
-15 10 -2 13 20 13 4 -1 -22 -6 -11 -8 -22 -6 -25 9 -9 47 22 47 38 0 9 9 42
20 74 18 53 16 88 -4 68z m-19 -39 c-3 -3 -12 -4 -19 -1 -8 3 -5 6 6 6 11 1
17 -2 13 -5z"/>
<path d="M2745 3090 c-4 -6 -10 -8 -15 -5 -14 8 -50 -18 -50 -35 0 -17 53 -53
64 -43 3 3 22 6 42 5 20 -1 51 5 70 13 57 23 262 51 351 46 17 -1 34 2 37 7 3
5 -41 9 -97 9 -56 0 -113 1 -127 2 -14 1 -37 0 -52 -2 -16 -2 -28 0 -28 6 0 5
-7 4 -15 -3 -8 -6 -18 -9 -23 -6 -17 10 -151 16 -157 6z"/>
<path d="M4355 3083 c-401 -4 -1183 -24 -1299 -34 -119 -9 -196 -25 -196 -40
0 -9 19 -8 320 10 296 17 1189 42 1480 41 68 0 35 18 -40 22 -36 1 -155 2
-265 1z"/>
<path d="M708 3033 c6 -2 18 -2 25 0 6 3 1 5 -13 5 -14 0 -19 -2 -12 -5z"/>
<path d="M788 3033 c7 -3 16 -2 19 1 4 3 -2 6 -13 5 -11 0 -14 -3 -6 -6z"/>
<path d="M918 3033 c7 -3 16 -2 19 1 4 3 -2 6 -13 5 -11 0 -14 -3 -6 -6z"/>
<path d="M1090 3020 c0 -5 5 -10 10 -10 6 0 10 5 10 10 0 6 -4 10 -10 10 -5 0
-10 -4 -10 -10z"/>
<path d="M1212 3018 c-15 -15 -16 -98 -1 -98 6 0 10 15 9 33 -3 57 0 66 23 70
20 4 20 4 2 6 -12 0 -26 -4 -33 -11z"/>
<path d="M800 3013 c0 -5 -32 -8 -71 -8 -69 0 -71 -1 -105 -37 -19 -21 -34
-47 -34 -58 0 -28 5 -25 29 15 24 41 42 46 39 10 -1 -14 -5 -25 -9 -25 -4 0
-9 -9 -12 -20 -5 -19 0 -20 75 -20 l80 0 -6 25 c-4 16 -2 25 5 25 7 0 4 9 -7
21 -16 17 -27 20 -67 16 -27 -2 -46 0 -45 5 2 5 7 9 12 8 5 -1 12 4 17 11 6
10 17 10 56 -2 27 -9 47 -21 45 -28 -1 -7 2 -10 7 -7 13 8 34 -21 25 -35 -4
-8 -3 -9 4 -5 8 5 12 0 12 -13 0 -21 15 -35 29 -27 16 10 -1 55 -38 95 -20 22
-35 44 -33 50 2 6 1 11 -2 11 -3 0 -6 -3 -6 -7z"/>
<path d="M868 2990 c2 -16 5 -30 7 -30 2 0 5 14 7 30 3 19 0 30 -7 30 -7 0
-10 -11 -7 -30z"/>
<path d="M928 3013 c6 -2 18 -2 25 0 6 3 1 5 -13 5 -14 0 -19 -2 -12 -5z"/>
<path d="M1548 3013 c7 -3 16 -2 19 1 4 3 -2 6 -13 5 -11 0 -14 -3 -6 -6z"/>
<path d="M965 2998 c-40 -22 -65 -52 -65 -77 l1 -26 15 28 c8 15 20 27 26 27
6 0 16 7 22 15 16 22 105 23 121 2 7 -9 14 -14 17 -11 6 6 41 -41 51 -68 8
-22 27 -24 27 -3 0 27 -28 73 -59 94 -34 24 -126 36 -156 19z"/>
<path d="M1140 2994 c0 -8 5 -12 10 -9 6 4 8 11 5 16 -9 14 -15 11 -15 -7z"/>
<path d="M1259 2945 c-4 -145 0 -245 9 -245 5 0 7 30 6 68 -1 40 3 70 10 74 7
5 6 8 -4 8 -13 0 -13 1 0 10 8 5 10 10 5 10 -7 0 -9 25 -7 65 2 42 0 65 -7 65
-6 0 -12 -23 -12 -55z"/>
<path d="M1320 2929 c-1 -41 -1 -110 -2 -154 -1 -44 2 -80 8 -79 5 0 8 32 7
70 0 43 3 72 10 76 8 5 8 8 1 8 -11 0 -13 88 -2 105 3 6 0 19 -8 30 -13 17
-14 11 -14 -56z"/>
<path d="M1440 2942 c0 -34 3 -62 8 -62 8 0 6 110 -3 118 -3 3 -5 -22 -5 -56z"/>
<path d="M1501 2948 c-1 -39 -5 -58 -13 -58 -10 0 -10 -2 0 -9 8 -4 13 -14 12
-22 -6 -39 1 -169 8 -165 5 3 7 37 6 76 -2 49 1 70 9 70 9 0 9 2 0 8 -7 4 -11
27 -10 58 2 27 0 61 -4 74 -5 17 -7 7 -8 -32z"/>
<path d="M4099 2968 c-26 -21 -47 -47 -55 -70 -13 -38 0 -56 14 -20 14 38 63
84 98 93 38 11 109 -5 99 -22 -4 -5 0 -9 9 -9 8 0 17 -6 19 -12 3 -7 6 -4 6 7
1 17 4 15 16 -9 8 -15 15 -37 15 -47 0 -24 28 -25 37 -1 13 36 55 81 85 91 47
17 72 13 112 -14 46 -31 65 -24 32 12 -50 54 -178 37 -215 -29 -9 -15 -20 -28
-24 -28 -15 0 -62 64 -59 79 2 13 1 13 -6 2 -7 -10 -14 -10 -30 -2 -11 6 -41
11 -66 11 -35 0 -54 -7 -87 -32z"/>
<path d="M1379 2965 c-3 -132 0 -269 7 -262 4 4 7 36 6 72 0 62 0 65 24 65 23
0 24 -2 24 -76 0 -41 4 -73 8 -70 5 3 7 36 6 73 -1 43 2 71 9 75 7 4 -6 8 -28
8 l-41 0 1 61 c0 61 -14 111 -16 54z"/>
<path d="M1729 2959 c-1 -19 0 -40 1 -48 1 -8 -4 -18 -12 -22 -10 -7 -10 -9 0
-9 6 0 12 -6 12 -14 0 -8 -6 -17 -12 -19 -10 -4 -10 -6 0 -6 8 -1 12 -24 13
-78 0 -43 4 -70 7 -60 4 9 6 44 5 77 -2 58 -1 60 23 60 22 0 24 -4 24 -51 0
-27 4 -48 8 -45 5 3 7 24 6 48 -1 24 3 46 10 50 6 4 -8 8 -31 8 -31 0 -43 4
-43 14 0 10 14 16 43 19 l42 4 -41 1 -41 2 -1 46 c-1 55 -11 73 -13 23z"/>
<path d="M1789 2957 c-3 -20 -2 -42 2 -48 10 -17 16 12 9 51 l-6 35 -5 -38z"/>
<path d="M3880 2973 c0 -13 5 -23 10 -23 13 0 13 11 0 30 -8 12 -10 11 -10 -7z"/>
<path d="M4330 2968 c0 -12 3 -18 7 -14 11 10 12 36 2 36 -5 0 -9 -10 -9 -22z"/>
<path d="M1560 2938 c0 -26 4 -38 8 -30 8 12 4 72 -4 72 -2 0 -4 -19 -4 -42z"/>
<path d="M1623 2940 c0 -25 2 -35 4 -22 2 12 2 32 0 45 -2 12 -4 2 -4 -23z"/>
<path d="M1670 2950 c0 -16 4 -30 8 -30 5 0 9 14 9 30 0 17 -4 30 -9 30 -4 0
-8 -13 -8 -30z"/>
<path d="M1849 2956 c-4 -110 2 -272 9 -254 4 10 6 53 5 98 -1 55 2 80 10 80
9 0 9 2 0 8 -7 5 -11 24 -10 45 2 21 0 40 -5 43 -4 3 -8 -6 -9 -20z"/>
<path d="M1910 2980 c-5 -14 -5 -62 1 -71 10 -17 16 13 8 46 -4 17 -8 28 -9
25z"/>
<path d="M1958 2950 c-3 -17 0 -34 6 -39 8 -6 11 3 12 30 0 46 -12 52 -18 9z"/>
<path d="M2019 2953 c-2 -57 2 -168 7 -172 3 -3 9 1 14 9 5 9 5 17 0 20 -12 8
-8 63 5 72 6 5 5 8 -2 8 -9 0 -12 13 -10 41 2 22 0 42 -5 45 -4 3 -8 -7 -9
-23z"/>
<path d="M2079 2952 c-4 -86 1 -173 9 -168 9 6 7 175 -2 184 -4 3 -6 -4 -7
-16z"/>
<path d="M2140 2955 c0 -8 2 -15 4 -15 2 0 6 7 10 15 3 8 1 15 -4 15 -6 0 -10
-7 -10 -15z"/>
<path d="M3237 2950 c5 -17 0 -20 -26 -20 -23 0 -31 -4 -30 -17 0 -11 3 -13 6
-5 2 6 15 12 28 12 13 0 26 -6 28 -12 4 -10 6 -10 6 0 1 6 13 12 27 12 14 0
23 -4 19 -10 -3 -5 1 -10 10 -10 9 0 14 4 10 9 -3 6 12 12 32 14 23 2 11 4
-31 5 -63 2 -68 4 -63 22 3 12 0 20 -8 20 -8 0 -11 -8 -8 -20z"/>
<path d="M3296 2955 c4 -8 8 -15 10 -15 2 0 4 7 4 15 0 8 -4 15 -10 15 -5 0
-7 -7 -4 -15z"/>
<path d="M3356 2955 c4 -8 8 -15 10 -15 2 0 4 7 4 15 0 8 -4 15 -10 15 -5 0
-7 -7 -4 -15z"/>
<path d="M3530 2933 c0 -20 3 -34 6 -30 9 9 11 67 2 67 -4 0 -8 -16 -8 -37z"/>
<path d="M3586 2955 c4 -8 7 -15 9 -15 2 0 5 7 9 15 3 9 0 15 -9 15 -9 0 -12
-6 -9 -15z"/>
<path d="M3647 2954 c3 -9 0 -20 -8 -25 -11 -7 -11 -9 2 -9 10 0 19 10 21 25
4 17 1 25 -8 25 -8 0 -11 -6 -7 -16z"/>
<path d="M965 2923 c-14 -21 -25 -41 -25 -45 0 -4 34 -7 75 -6 58 1 75 5 75
16 0 8 -8 21 -17 29 -17 13 -16 14 5 8 31 -9 28 13 -4 25 -52 20 -82 13 -109
-27z"/>
<path d="M2200 2947 c0 -13 -9 -17 -33 -17 -29 0 -32 -3 -31 -27 1 -16 3 -68
3 -118 1 -49 5 -85 9 -78 4 6 6 57 6 112 -2 100 -1 101 22 101 24 0 24 -1 24
-110 0 -60 3 -110 8 -110 8 0 7 249 -2 257 -3 4 -6 -1 -6 -10z"/>
<path d="M2259 2940 c-1 -14 0 -166 1 -202 0 -10 4 -18 8 -18 5 0 7 35 6 78
-1 49 2 80 10 84 8 6 8 8 -1 8 -20 0 -15 30 5 31 13 0 14 2 2 6 -8 3 -18 11
-22 17 -5 7 -8 6 -9 -4z"/>
<path d="M3009 2944 c-5 -55 -1 -238 6 -236 9 2 11 229 1 239 -3 3 -6 2 -7 -3z"/>
<path d="M4134 2934 c-13 -10 -15 -17 -7 -20 10 -4 10 -10 1 -24 -7 -11 -10
-22 -6 -25 3 -3 36 -5 73 -3 l67 3 -22 28 c-15 18 -32 27 -53 28 -30 2 -31 2
-4 6 15 2 27 9 27 14 0 15 -55 10 -76 -7z"/>
<path d="M4444 2940 c-31 -12 -39 -29 -12 -22 22 5 22 4 6 -15 -32 -35 -23
-43 52 -43 39 0 70 3 70 8 0 17 -32 52 -48 52 -13 0 -14 2 -4 9 10 6 8 10 -10
14 -28 8 -27 8 -54 -3z"/>
<path d="M2317 2848 c1 -46 5 -85 10 -88 7 -4 7 29 4 153 -1 9 -4 17 -8 17 -5
0 -7 -37 -6 -82z"/>
<path d="M2947 2838 c2 -130 2 -128 11 -128 4 0 7 50 7 110 0 67 -4 110 -10
110 -6 0 -9 -36 -8 -92z"/>
<path d="M3065 2920 c3 -5 8 -10 11 -10 2 0 4 5 4 10 0 6 -5 10 -11 10 -5 0
-7 -4 -4 -10z"/>
<path d="M3410 2919 c0 -5 5 -7 10 -4 6 3 10 8 10 11 0 2 -4 4 -10 4 -5 0 -10
-5 -10 -11z"/>
<path d="M3471 2914 c0 -11 3 -14 6 -6 3 7 2 16 -1 19 -3 4 -6 -2 -5 -13z"/>
<path d="M3587 2914 c3 -9 9 -12 12 -7 3 4 10 11 15 16 5 4 0 7 -12 7 -15 0
-20 -4 -15 -16z"/>
<path d="M3825 2920 c3 -5 8 -10 11 -10 2 0 4 5 4 10 0 6 -5 10 -11 10 -5 0
-7 -4 -4 -10z"/>
<path d="M3880 2873 c0 -33 4 -53 8 -46 5 7 7 28 6 45 -1 18 2 39 8 45 8 10 6
13 -6 13 -13 0 -16 -11 -16 -57z"/>
<path d="M3938 2923 c7 -3 16 -2 19 1 4 3 -2 6 -13 5 -11 0 -14 -3 -6 -6z"/>
<path d="M1200 2885 c0 -14 5 -25 11 -25 5 0 8 4 5 9 -4 5 0 12 6 14 10 4 10
6 0 6 -7 1 -10 6 -7 11 3 6 1 10 -4 10 -6 0 -11 -11 -11 -25z"/>
<path d="M1668 2898 c-6 -16 1 -38 12 -38 5 0 7 10 5 21 -6 28 -11 33 -17 17z"/>
<path d="M3350 2900 c0 -5 -9 -10 -21 -10 -15 0 -19 -5 -15 -15 3 -8 -2 -19
-12 -24 -14 -8 -15 -12 -4 -22 9 -10 12 -10 12 -1 0 7 10 17 23 22 12 5 16 9
8 9 -11 1 -11 4 -1 16 7 8 16 12 21 9 5 -3 9 2 9 10 0 9 -4 16 -10 16 -5 0
-10 -4 -10 -10z"/>
<path d="M3712 2885 c0 -16 2 -22 5 -12 2 9 2 23 0 30 -3 6 -5 -1 -5 -18z"/>
<path d="M3253 2891 c-17 -5 -20 -10 -13 -21 6 -10 10 -11 10 -2 0 6 9 12 19
12 11 0 22 -6 24 -12 4 -8 6 -7 6 3 1 20 -16 28 -46 20z"/>
<path d="M1552 2876 c7 -8 15 -11 18 -7 3 3 9 9 14 14 5 4 -3 7 -18 7 -22 0
-25 -2 -14 -14z"/>
<path d="M1616 2875 c4 -8 7 -15 9 -15 2 0 5 7 9 15 3 9 0 15 -9 15 -9 0 -12
-6 -9 -15z"/>
<path d="M1906 2875 c4 -8 7 -15 9 -15 2 0 5 7 9 15 3 9 0 15 -9 15 -9 0 -12
-6 -9 -15z"/>
<path d="M1960 2875 c0 -8 5 -15 11 -15 5 0 8 4 5 9 -4 5 0 12 6 14 8 3 6 6
-4 6 -10 1 -18 -6 -18 -14z"/>
<path d="M2369 2844 c1 -25 5 -43 8 -41 8 9 6 68 -3 77 -5 5 -8 -9 -5 -36z"/>
<path d="M2890 2813 c0 -42 3 -73 7 -69 10 10 11 146 1 146 -4 0 -8 -34 -8
-77z"/>
<path d="M3180 2793 c0 -53 3 -93 7 -89 10 10 10 186 1 186 -5 0 -8 -43 -8
-97z"/>
<path d="M3410 2879 c0 -5 5 -7 10 -4 6 3 10 8 10 11 0 2 -4 4 -10 4 -5 0 -10
-5 -10 -11z"/>
<path d="M3526 2875 c-3 -8 -1 -15 3 -15 5 0 11 7 15 15 3 8 1 15 -3 15 -5 0
-11 -7 -15 -15z"/>
<path d="M3583 2865 c-9 -21 -9 -25 4 -25 8 0 11 5 8 10 -3 6 3 10 15 10 19 0
20 2 6 15 -19 19 -19 19 -33 -10z"/>
<path d="M1558 2775 c-2 -41 -2 -75 0 -75 2 0 10 7 18 15 9 8 11 15 5 15 -6 0
-9 23 -7 60 1 33 -1 60 -5 60 -4 0 -9 -34 -11 -75z"/>
<path d="M1613 2835 c0 -8 6 -15 12 -15 6 0 12 7 12 15 0 8 -6 15 -12 15 -6 0
-12 -7 -12 -15z"/>
<path d="M1668 2805 c-3 -49 -1 -65 12 -65 4 0 7 25 6 55 -1 66 -13 73 -18 10z"/>
<path d="M1907 2774 c2 -77 12 -117 14 -53 0 19 1 55 2 82 2 27 -2 47 -8 47
-6 0 -9 -30 -8 -76z"/>
<path d="M1960 2835 c0 -8 4 -15 8 -15 5 0 9 7 9 15 0 8 -4 15 -9 15 -4 0 -8
-7 -8 -15z"/>
<path d="M2841 2834 c0 -11 3 -14 6 -6 3 7 2 16 -1 19 -3 4 -6 -2 -5 -13z"/>
<path d="M3071 2834 c0 -11 3 -14 6 -6 3 7 2 16 -1 19 -3 4 -6 -2 -5 -13z"/>
<path d="M3238 2779 c-2 -39 0 -76 4 -83 9 -13 9 -14 11 82 3 93 -10 94 -15 1z"/>
<path d="M3498 2843 c6 -2 18 -2 25 0 6 3 1 5 -13 5 -14 0 -19 -2 -12 -5z"/>
<path d="M2473 2828 c-6 -7 -22 -32 -37 -55 -25 -41 -25 -43 -7 -43 20 0 71
72 71 98 0 16 -15 15 -27 0z"/>
<path d="M2728 2832 c-10 -2 -18 -8 -18 -14 0 -20 71 -98 90 -98 16 0 14 7
-15 56 -40 66 -35 61 -57 56z"/>
<path d="M3530 2761 c0 -41 3 -72 6 -68 9 9 11 115 2 129 -4 7 -8 -20 -8 -61z"/>
<path d="M4118 2823 c-9 -2 -19 -11 -22 -19 -7 -18 12 -60 27 -62 7 -1 29 -5
50 -8 21 -4 50 -1 66 6 24 9 28 17 26 43 -1 19 -9 34 -21 38 -20 8 -99 9 -126
2z"/>
<path d="M4411 2813 c-44 -37 9 -89 84 -84 33 3 72 35 77 66 2 15 -4 21 -27
26 -58 13 -112 9 -134 -8z"/>
<path d="M1203 2795 c0 -8 4 -15 9 -15 4 0 8 7 8 15 0 8 -4 15 -8 15 -5 0 -9
-7 -9 -15z"/>
<path d="M1616 2795 c4 -8 8 -15 10 -15 2 0 4 7 4 15 0 8 -4 15 -10 15 -5 0
-7 -7 -4 -15z"/>
<path d="M1960 2795 c0 -8 5 -15 10 -15 6 0 10 7 10 15 0 8 -4 15 -10 15 -5 0
-10 -7 -10 -15z"/>
<path d="M3296 2801 c-4 -5 -2 -12 3 -15 5 -4 12 -2 15 3 4 5 2 12 -3 15 -5 4
-12 2 -15 -3z"/>
<path d="M3355 2800 c-3 -5 -1 -10 4 -10 6 0 11 5 11 10 0 6 -2 10 -4 10 -3 0
-8 -4 -11 -10z"/>
<path d="M3415 2800 c-3 -5 -1 -10 4 -10 6 0 11 5 11 10 0 6 -2 10 -4 10 -3 0
-8 -4 -11 -10z"/>
<path d="M3590 2748 c0 -34 3 -59 6 -56 8 9 10 118 2 118 -5 0 -8 -28 -8 -62z"/>
<path d="M3640 2801 c0 -6 5 -13 10 -16 6 -3 10 1 10 9 0 9 -4 16 -10 16 -5 0
-10 -4 -10 -9z"/>
<path d="M3711 2794 c0 -11 3 -14 6 -6 3 7 2 16 -1 19 -3 4 -6 -2 -5 -13z"/>
<path d="M3820 2794 c0 -8 5 -12 10 -9 6 4 8 11 5 16 -9 14 -15 11 -15 -7z"/>
<path d="M3880 2794 c0 -8 5 -12 10 -9 6 3 10 10 10 16 0 5 -4 9 -10 9 -5 0
-10 -7 -10 -16z"/>
<path d="M3940 2794 c0 -8 5 -12 10 -9 6 4 8 11 5 16 -9 14 -15 11 -15 -7z"/>
<path d="M4280 2799 c0 -5 5 -7 10 -4 6 3 10 8 10 11 0 2 -4 4 -10 4 -5 0 -10
-5 -10 -11z"/>
<path d="M4598 2771 c-24 -43 -62 -64 -115 -63 -40 0 -51 6 -89 43 -36 35 -44
39 -44 24 1 -38 51 -83 107 -96 73 -16 152 27 168 94 9 36 -6 35 -27 -2z"/>
<path d="M1200 2735 c0 -19 5 -35 10 -35 6 0 10 16 10 35 0 19 -4 35 -10 35
-5 0 -10 -16 -10 -35z"/>
<path d="M1613 2735 c3 -46 23 -46 23 0 0 21 -5 35 -13 35 -7 0 -11 -13 -10
-35z"/>
<path d="M1963 2730 c-2 -22 1 -40 6 -40 4 0 8 18 9 40 2 52 -12 52 -15 0z"/>
<path d="M2020 2755 c0 -8 5 -15 10 -15 6 0 10 7 10 15 0 8 -4 15 -10 15 -5 0
-10 -7 -10 -15z"/>
<path d="M2080 2754 c0 -8 5 -12 10 -9 6 3 10 10 10 16 0 5 -4 9 -10 9 -5 0
-10 -7 -10 -16z"/>
<path d="M3299 2768 c-7 -15 -6 -58 2 -58 5 0 9 14 9 30 0 25 -6 39 -11 28z"/>
<path d="M3649 2743 c-3 -18 -2 -38 1 -44 11 -17 17 11 10 46 l-6 30 -5 -32z"/>
<path d="M3880 2754 c0 -8 5 -12 10 -9 6 4 8 11 5 16 -9 14 -15 11 -15 -7z"/>
<path d="M868 2745 c-3 -11 -1 -29 3 -40 6 -17 8 -17 8 -2 1 9 7 17 14 17 8 0
9 3 1 8 -6 4 -13 14 -16 22 -3 11 -6 9 -10 -5z"/>
<path d="M3068 2738 c-3 -15 -2 -32 2 -38 11 -18 18 10 10 40 l-6 25 -6 -27z"/>
<path d="M3820 2751 c0 -6 5 -13 10 -16 6 -3 10 1 10 9 0 9 -4 16 -10 16 -5 0
-10 -4 -10 -9z"/>
<path d="M1670 2715 c0 -8 4 -15 8 -15 5 0 9 7 9 15 0 8 -4 15 -9 15 -4 0 -8
-7 -8 -15z"/>
<path d="M1790 2708 c0 -12 3 -18 7 -14 11 10 12 36 2 36 -5 0 -9 -10 -9 -22z"/>
<path d="M2020 2716 c0 -8 4 -17 9 -21 6 -3 9 4 8 15 -1 23 -17 28 -17 6z"/>
<path d="M2083 2715 c0 -8 4 -15 9 -15 4 0 8 7 8 15 0 8 -4 15 -8 15 -5 0 -9
-7 -9 -15z"/>
<path d="M3355 2720 c-3 -5 -1 -10 4 -10 6 0 11 5 11 10 0 6 -2 10 -4 10 -3 0
-8 -4 -11 -10z"/>
<path d="M3760 2720 c0 -5 5 -10 11 -10 5 0 7 5 4 10 -3 6 -8 10 -11 10 -2 0
-4 -4 -4 -10z"/>
<path d="M4330 2711 c0 -25 6 -27 13 -6 4 8 2 17 -3 20 -6 4 -10 -3 -10 -14z"/>
<path d="M3126 2705 c4 -8 8 -15 10 -15 2 0 4 7 4 15 0 8 -4 15 -10 15 -5 0
-7 -7 -4 -15z"/>
<path d="M3880 2705 c0 -8 2 -15 4 -15 2 0 6 7 10 15 3 8 1 15 -4 15 -6 0 -10
-7 -10 -15z"/>
<path d="M2342 2674 c-29 -14 -80 -31 -115 -39 l-62 -15 60 5 c79 5 129 21
162 50 35 31 22 30 -45 -1z"/>
<path d="M2815 2674 c11 -9 35 -23 54 -31 42 -18 181 -43 181 -33 0 4 -27 13
-60 18 -33 6 -83 22 -111 37 -59 29 -97 35 -64 9z"/>
<path d="M1778 2603 c7 -3 16 -2 19 1 4 3 -2 6 -13 5 -11 0 -14 -3 -6 -6z"/>
<path d="M4328 2593 c7 -3 16 -2 19 1 4 3 -2 6 -13 5 -11 0 -14 -3 -6 -6z"/>
<path d="M773 2257 c3 -9 120 -13 453 -14 247 -1 607 -4 799 -5 l350 -3 -310
-5 c-170 -3 -265 -7 -210 -9 55 -2 107 -2 114 -1 8 1 21 -6 28 -16 7 -10 13
-12 13 -6 0 14 68 16 89 3 31 -20 -13 -25 -354 -41 -121 -5 -259 -12 -308 -15
-48 -2 -179 -7 -290 -11 -380 -12 -228 -24 319 -25 553 -1 1755 -6 2521 -10
382 -3 459 0 442 15 -2 2 -89 6 -194 10 -104 3 -230 8 -280 11 -131 7 -327 16
-430 20 -168 7 -420 24 -458 31 -35 7 -25 24 14 24 16 0 29 4 29 9 0 6 -103
10 -252 10 -138 1 -254 4 -257 7 -5 5 1390 2 1676 -4 l141 -3 8 -27 c9 -30 11
-41 13 -60 0 -7 5 -11 9 -8 13 8 2 68 -16 89 -9 11 -11 17 -4 17 7 0 12 5 12
10 0 7 -6 7 -19 0 -11 -6 -54 -8 -98 -6 -43 3 -852 7 -1798 11 -946 3 -1728 8
-1738 10 -11 2 -17 -1 -14 -8z m1705 -24 c-16 -2 -40 -2 -55 0 -16 2 -3 4 27
4 30 0 43 -2 28 -4z m95 0 c-7 -2 -21 -2 -30 0 -10 3 -4 5 12 5 17 0 24 -2 18
-5z"/>
<path d="M3183 2223 c15 -2 39 -2 55 0 15 2 2 4 -28 4 -30 0 -43 -2 -27 -4z"/>
<path d="M3393 2223 c9 -2 25 -2 35 0 9 3 1 5 -18 5 -19 0 -27 -2 -17 -5z"/>
<path d="M3588 2223 c7 -3 16 -2 19 1 4 3 -2 6 -13 5 -11 0 -14 -3 -6 -6z"/>
<path d="M800 2204 c0 -8 5 -12 10 -9 6 4 8 11 5 16 -9 14 -15 11 -15 -7z"/>
<path d="M830 2194 c0 -8 9 -14 19 -14 30 0 34 17 6 22 -17 4 -25 1 -25 -8z"/>
<path d="M3395 2190 c3 -5 29 -10 57 -10 64 0 60 5 -10 14 -37 5 -52 4 -47 -4z"/>
<path d="M3515 2190 c-3 -5 -5 -10 -3 -10 31 -5 182 -12 548 -25 69 -3 178 -8
243 -11 123 -6 134 -2 104 38 -10 13 -30 17 -90 16 -42 0 -75 -4 -72 -8 3 -5
-9 -5 -27 1 -18 5 -40 9 -48 9 -13 0 -13 -1 0 -10 9 -6 10 -10 3 -10 -6 0 -14
4 -17 8 -3 5 -19 7 -35 4 -20 -3 -28 -8 -24 -16 4 -6 -1 -5 -10 2 -9 8 -21 11
-27 7 -5 -3 -10 -3 -10 2 0 4 -29 9 -65 10 -37 2 -65 -2 -65 -7 0 -6 -5 -10
-11 -10 -5 0 -8 4 -4 9 6 11 -61 8 -87 -4 -10 -4 -18 -3 -18 2 0 13 -277 17
-285 3z"/>
<path d="M1595 2180 c-19 -8 -19 -9 3 -9 12 -1 22 4 22 9 0 6 -1 10 -2 9 -2 0
-12 -4 -23 -9z"/>
<path d="M797 2173 c-12 -12 -7 -22 8 -17 8 4 15 10 15 15 0 11 -14 12 -23 2z"/>
<path d="M1400 2169 c0 -5 5 -7 10 -4 6 3 10 8 10 11 0 2 -4 4 -10 4 -5 0 -10
-5 -10 -11z"/>
<path d="M1460 2169 c0 -5 5 -7 10 -4 6 3 10 8 10 11 0 2 -4 4 -10 4 -5 0 -10
-5 -10 -11z"/>
<path d="M911 2154 c0 -11 3 -14 6 -6 3 7 2 16 -1 19 -3 4 -6 -2 -5 -13z"/>
<path d="M938 2153 c6 -2 18 -2 25 0 6 3 1 5 -13 5 -14 0 -19 -2 -12 -5z"/>
<path d="M770 2130 c0 -5 5 -10 11 -10 5 0 7 5 4 10 -3 6 -8 10 -11 10 -2 0
-4 -4 -4 -10z"/>
<path d="M810 2120 c8 -5 20 -10 25 -10 6 0 3 5 -5 10 -8 5 -19 10 -25 10 -5
0 -3 -5 5 -10z"/>
<path d="M855 2120 c-4 -6 3 -10 14 -10 25 0 27 6 6 13 -8 4 -17 2 -20 -3z"/>
<path d="M893 2093 c32 -2 81 -2 110 0 29 2 3 3 -58 3 -60 0 -84 -1 -52 -3z"/>
<path d="M1108 2093 c7 -3 16 -2 19 1 4 3 -2 6 -13 5 -11 0 -14 -3 -6 -6z"/>
<path d="M1331 1617 c-12 -128 -25 -242 -28 -254 -5 -22 -2 -23 56 -23 42 0
61 4 61 13 0 25 -59 490 -63 493 -1 2 -13 -101 -26 -229z"/>
<path d="M2107 1883 c-4 -3 -7 -167 -7 -363 0 -263 3 -359 12 -368 20 -20 76
-15 88 7 6 13 10 143 10 356 0 213 -4 343 -10 356 -8 14 -21 19 -49 19 -21 0
-41 -3 -44 -7z"/>
<path d="M2760 1660 l0 -230 53 0 c29 0 58 5 65 12 13 13 18 401 6 432 -5 12
-21 16 -65 16 l-59 0 0 -230z"/>
<path d="M3510 1660 l0 -231 58 3 57 3 0 225 0 225 -57 3 -58 3 0 -231z"/>
<path d="M3792 1878 c-9 -9 -12 -95 -12 -359 0 -303 2 -350 16 -363 19 -20 68
-21 83 -2 8 9 11 116 9 372 l-3 359 -40 3 c-23 2 -46 -3 -53 -10z"/>
</g>
</svg>
